#N canvas 221 7 996 1028 10;
#X obj 12 35 s inA1;
#X obj 12 63 r inA1;
#X obj 12 91 quantizeGmScale 0.0002 0.9;
#X obj 59 35 s inA2;
#X obj 379 13 pepperInitializeDigitalGpio;
#X obj 107 35 s inA3;
#X obj 12 139 dac~ 3;
#X obj 12 111 pepperMidiToCvOut 1.013;
#X obj 12 14 pepperReadAnalogInputs 1, f 56;
#X obj 192 91 quantizeGmScale 0.0002 0.9;
#X obj 192 111 pepperMidiToCvOut 1.013;
#X obj 192 63 r inA2;
#X obj 192 139 dac~ 4;
#X obj 372 91 quantizeGmScale 0.0002 0.9;
#X obj 372 111 pepperMidiToCvOut 1.013;
#X obj 552 91 quantizeGmScale 0.0002 0.9;
#X obj 552 111 pepperMidiToCvOut 1.013;
#X obj 154 35 s inA4;
#X obj 372 63 r inA3;
#X obj 552 63 r inA4;
#X obj 372 139 dac~ 5;
#X obj 552 139 dac~ 6;
#X connect 1 0 2 0;
#X connect 2 0 7 0;
#X connect 7 0 6 0;
#X connect 8 0 0 0;
#X connect 8 1 3 0;
#X connect 8 2 5 0;
#X connect 8 3 17 0;
#X connect 9 0 10 0;
#X connect 10 0 12 0;
#X connect 11 0 9 0;
#X connect 13 0 14 0;
#X connect 14 0 20 0;
#X connect 15 0 16 0;
#X connect 16 0 21 0;
#X connect 18 0 13 0;
#X connect 19 0 15 0;
