#N canvas 973 329 450 304 12;
#X obj 27 15 inlet;
#X obj 27 43 phasor~;
#X obj 26 126 outlet~;
#X obj 27 72 *~ 2;
#X obj 27 98 -~ 1;
#X text 110 9 Sawtooth Waveform;
#X connect 0 0 1 0;
#X connect 1 0 3 0;
#X connect 3 0 4 0;
#X connect 4 0 2 0;
