#N canvas 952 399 450 304 12;
#X obj 27 15 inlet;
#X obj 26 176 outlet~;
#X text 110 9 Square Waveform;
#X obj 27 111 osc~;
#X obj 27 132 expr~ if($v1 > $f2 \, 1 \, -1);
#X obj 206 34 inlet;
#X floatatom 206 80 5 0 0 0 - - - 0;
#X obj 253 34 loadbang;
#X obj 253 58 f \$1;
#X text 300 62 Modulation;
#X obj 206 103 clip 0.01 0.99;
#X connect 0 0 3 0;
#X connect 3 0 4 0;
#X connect 4 0 1 0;
#X connect 5 0 6 0;
#X connect 6 0 10 0;
#X connect 7 0 8 0;
#X connect 8 0 6 0;
#X connect 10 0 4 1;
