#N canvas 973 329 450 304 12;
#X obj 27 15 inlet;
#X obj 27 43 phasor~;
#X obj 27 64 expr~ if($v1 > 0.5 \, 1 - $v1 \, $v1);
#X obj 26 102 -~ 1;
#X obj 26 84 *~ 4;
#X text 110 9 Triangle Waveform;
#X obj 26 126 outlet~;
#X connect 0 0 1 0;
#X connect 1 0 2 0;
#X connect 2 0 4 0;
#X connect 3 0 6 0;
#X connect 4 0 3 0;
