#N canvas 726 39 1445 741 10;
#X obj 473 212 adc~ 3;
#X obj 318 13 loadbang;
#X obj 472 239 snapshot~;
#X obj 318 112 tgl 15 0 empty empty empty 17 7 0 10 #fcfcfc #000000
#000000 0 1;
#X obj 101 65 s bela_setDigital;
#X msg 101 44 out 11;
#X obj 213 64 s bela_setDigital;
#X obj 324 64 s bela_setDigital;
#X obj 434 64 s bela_setDigital;
#X msg 213 43 out 12;
#X msg 324 43 out 13;
#X msg 434 43 out 14;
#X obj 318 134 metro 10;
#N canvas 726 867 544 300 mux1DigitalOutputs 0;
#X obj 21 44 inlet;
#X obj 142 74 s bela_digitalOut12;
#X obj 21 74 s bela_digitalOut11;
#X obj 263 74 s bela_digitalOut13;
#X obj 384 74 s bela_digitalOut14;
#X obj 144 46 inlet;
#X obj 264 45 inlet;
#X obj 384 45 inlet;
#X text 41 20 Set desired status to digital outputs (true or false)
for address MUX, f 70;
#X connect 0 0 2 0;
#X connect 5 0 1 0;
#X connect 6 0 3 0;
#X connect 7 0 4 0;
#X restore 94 303 pd mux1DigitalOutputs;
#X obj 96 278 CD74HC4067, f 126;
#X obj 410 211 delay 5;
#X obj 609 104 inlet;
#X obj 109 395 loadbang;
#X msg 94 420 4;
#X msg 122 420 833;
#X obj 45 444 mapFunctionToMidi;
#X obj 45 465 s mux1pot1midiValue;
#X obj 235 395 loadbang;
#X obj 171 444 mapFunctionToMidi;
#X msg 220 420 1;
#X msg 248 420 834;
#X obj 171 465 s mux1pot2midiValue;
#X text 77 8 Initialize digital outputs;
#X text 408 188 Read analog input;
#X text 651 103 Change multiplexer frequency;
#X obj 361 395 loadbang;
#X obj 297 444 mapFunctionToMidi;
#X msg 374 420 834;
#X obj 297 465 s mux1pot3midiValue;
#X msg 346 420 5;
#X obj 486 394 loadbang;
#X obj 422 443 mapFunctionToMidi;
#X msg 499 419 834;
#X msg 471 419 5;
#X obj 422 464 s mux1pot4midiValue;
#X obj 611 393 loadbang;
#X obj 547 442 mapFunctionToMidi;
#X msg 596 418 5;
#X obj 547 463 s mux1pot5midiValue;
#X msg 624 418 826;
#X obj 736 393 loadbang;
#X obj 672 442 mapFunctionToMidi;
#X obj 672 463 s mux1pot6midiValue;
#X msg 721 418 19;
#X msg 749 418 816;
#X obj 862 392 loadbang;
#X obj 798 441 mapFunctionToMidi;
#X obj 988 392 loadbang;
#X obj 924 441 mapFunctionToMidi;
#X obj 798 462 s mux1pot7midiValue;
#X obj 924 462 s mux1pot8midiValue;
#X msg 847 417 7;
#X msg 875 417 830;
#X msg 973 417 8;
#X msg 1001 417 830;
#X obj 108 492 loadbang;
#X msg 93 517 4;
#X obj 44 541 mapFunctionToMidi;
#X obj 234 492 loadbang;
#X obj 170 541 mapFunctionToMidi;
#X obj 360 492 loadbang;
#X obj 296 541 mapFunctionToMidi;
#X msg 373 517 834;
#X msg 345 517 5;
#X obj 485 491 loadbang;
#X obj 421 540 mapFunctionToMidi;
#X msg 498 516 834;
#X msg 470 516 5;
#X obj 610 490 loadbang;
#X obj 546 539 mapFunctionToMidi;
#X msg 595 515 5;
#X msg 623 515 826;
#X obj 735 490 loadbang;
#X obj 671 539 mapFunctionToMidi;
#X msg 720 515 19;
#X msg 748 515 816;
#X obj 861 489 loadbang;
#X obj 797 538 mapFunctionToMidi;
#X obj 987 489 loadbang;
#X obj 923 538 mapFunctionToMidi;
#X msg 846 514 7;
#X msg 874 514 830;
#X obj 44 562 s mux1pot9midiValue;
#X obj 170 562 s mux1pot10midiValue;
#X obj 296 562 s mux1pot11midiValue;
#X obj 421 561 s mux1pot12midiValue;
#X obj 546 560 s mux1pot13midiValue;
#X obj 671 560 s mux1pot14midiValue;
#X obj 797 559 s mux1pot15midiValue;
#X obj 923 559 s mux1pot16midiValue;
#X msg 972 514 9;
#X msg 1000 514 825;
#X msg 121 517 820;
#X msg 219 517 40;
#X msg 247 517 830;
#X text 512 40 Initialize how digital outputs use for control MUX from
Bela;
#X text 349 594 Scaling analog values to MIDI values (0 - 127);
#X text 89 321 Set desired status to digital outputs (true or false)
for address MUX, f 24;
#X obj 849 243 tgl 15 0 empty empty Print\\\ values 17 7 0 10 #fcfcfc
#000000 #000000 0 1;
#X connect 0 0 2 0;
#X connect 1 0 5 0;
#X connect 1 0 3 0;
#X connect 1 0 9 0;
#X connect 1 0 10 0;
#X connect 1 0 11 0;
#X connect 2 0 14 1;
#X connect 3 0 12 0;
#X connect 5 0 4 0;
#X connect 9 0 6 0;
#X connect 10 0 7 0;
#X connect 11 0 8 0;
#X connect 12 0 14 0;
#X connect 12 0 15 0;
#X connect 14 0 13 0;
#X connect 14 1 13 1;
#X connect 14 2 13 2;
#X connect 14 3 13 3;
#X connect 14 4 20 0;
#X connect 14 5 23 0;
#X connect 14 6 31 0;
#X connect 14 7 36 0;
#X connect 14 8 41 0;
#X connect 14 9 46 0;
#X connect 14 10 51 0;
#X connect 14 11 53 0;
#X connect 14 12 62 0;
#X connect 14 13 64 0;
#X connect 14 14 66 0;
#X connect 14 15 70 0;
#X connect 14 16 74 0;
#X connect 14 17 78 0;
#X connect 14 18 82 0;
#X connect 14 19 84 0;
#X connect 15 0 2 0;
#X connect 16 0 12 1;
#X connect 17 0 18 0;
#X connect 17 0 19 0;
#X connect 18 0 20 1;
#X connect 19 0 20 2;
#X connect 20 0 21 0;
#X connect 22 0 24 0;
#X connect 22 0 25 0;
#X connect 23 0 26 0;
#X connect 24 0 23 1;
#X connect 25 0 23 2;
#X connect 30 0 34 0;
#X connect 30 0 32 0;
#X connect 31 0 33 0;
#X connect 32 0 31 2;
#X connect 34 0 31 1;
#X connect 35 0 38 0;
#X connect 35 0 37 0;
#X connect 36 0 39 0;
#X connect 37 0 36 2;
#X connect 38 0 36 1;
#X connect 40 0 42 0;
#X connect 40 0 44 0;
#X connect 41 0 43 0;
#X connect 42 0 41 1;
#X connect 44 0 41 2;
#X connect 45 0 48 0;
#X connect 45 0 49 0;
#X connect 46 0 47 0;
#X connect 48 0 46 1;
#X connect 49 0 46 2;
#X connect 50 0 56 0;
#X connect 50 0 57 0;
#X connect 51 0 54 0;
#X connect 52 0 58 0;
#X connect 52 0 59 0;
#X connect 53 0 55 0;
#X connect 56 0 51 1;
#X connect 57 0 51 2;
#X connect 58 0 53 1;
#X connect 59 0 53 2;
#X connect 60 0 61 0;
#X connect 60 0 97 0;
#X connect 61 0 62 1;
#X connect 62 0 87 0;
#X connect 63 0 98 0;
#X connect 63 0 99 0;
#X connect 64 0 88 0;
#X connect 65 0 68 0;
#X connect 65 0 67 0;
#X connect 66 0 89 0;
#X connect 67 0 66 2;
#X connect 68 0 66 1;
#X connect 69 0 72 0;
#X connect 69 0 71 0;
#X connect 70 0 90 0;
#X connect 71 0 70 2;
#X connect 72 0 70 1;
#X connect 73 0 75 0;
#X connect 73 0 76 0;
#X connect 74 0 91 0;
#X connect 75 0 74 1;
#X connect 76 0 74 2;
#X connect 77 0 79 0;
#X connect 77 0 80 0;
#X connect 78 0 92 0;
#X connect 79 0 78 1;
#X connect 80 0 78 2;
#X connect 81 0 85 0;
#X connect 81 0 86 0;
#X connect 82 0 93 0;
#X connect 83 0 95 0;
#X connect 83 0 96 0;
#X connect 84 0 94 0;
#X connect 85 0 82 1;
#X connect 86 0 82 2;
#X connect 95 0 84 1;
#X connect 96 0 84 2;
#X connect 97 0 62 2;
#X connect 98 0 64 1;
#X connect 99 0 64 2;
#X connect 103 0 14 2;
