#N canvas 794 489 935 534 12;
#X obj 260 60 loadbang;
#X floatatom 250 126 5 0 0 0 - - - 0;
#X obj 250 102 loop;
#X obj 26 192 sel 1 3 5 7 9 11 13 15;
#X msg 260 80 16;
#X obj 187 230 bng 15 250 50 0 empty empty empty 17 7 0 10 #fcfcfc
#000000 #000000;
#X obj 236 230 bng 15 250 50 0 empty empty empty 17 7 0 10 #fcfcfc
#000000 #000000;
#X msg 187 252 1;
#X msg 216 252 0;
#X obj 187 276 tgl 15 0 empty empty empty 17 7 0 10 #fcfcfc #000000
#000000 0 1;
#X obj 187 192 sel 2 3 6 7 10 11 14 15;
#X obj 26 230 bng 15 250 50 0 empty empty empty 17 7 0 10 #fcfcfc #000000
#000000;
#X obj 75 230 bng 15 250 50 0 empty empty empty 17 7 0 10 #fcfcfc #000000
#000000;
#X msg 26 252 1;
#X msg 55 252 0;
#X obj 26 276 tgl 15 0 empty empty empty 17 7 0 10 #fcfcfc #000000
#000000 0 1;
#X obj 523 230 bng 15 250 50 0 empty empty empty 17 7 0 10 #fcfcfc
#000000 #000000;
#X obj 572 230 bng 15 250 50 0 empty empty empty 17 7 0 10 #fcfcfc
#000000 #000000;
#X msg 523 252 1;
#X msg 552 252 0;
#X obj 523 276 tgl 15 0 empty empty empty 17 7 0 10 #fcfcfc #000000
#000000 0 1;
#X obj 355 230 bng 15 250 50 0 empty empty empty 17 7 0 10 #fcfcfc
#000000 #000000;
#X obj 404 230 bng 15 250 50 0 empty empty empty 17 7 0 10 #fcfcfc
#000000 #000000;
#X msg 355 252 1;
#X msg 384 252 0;
#X obj 355 276 tgl 15 0 empty empty empty 17 7 0 10 #fcfcfc #000000
#000000 0 1;
#X obj 355 192 sel 4 5 6 7 12 13 14 15;
#X obj 523 192 sel 8 9 10 11 12 13 14 15;
#X obj 250 21 inlet trigger;
#X obj 26 304 outlet digitalOut1;
#X obj 187 304 outlet digitalOutput2;
#X obj 355 304 outlet digitalOutput3;
#X obj 523 304 outlet digitalOutput4;
#X obj 706 191 outlet index;
#X text 349 84 Loop throught 16 values and set decimal to digital value
;
#X connect 0 0 4 0;
#X connect 1 0 10 0;
#X connect 1 0 3 0;
#X connect 1 0 26 0;
#X connect 1 0 27 0;
#X connect 1 0 33 0;
#X connect 2 0 1 0;
#X connect 3 0 11 0;
#X connect 3 1 11 0;
#X connect 3 2 11 0;
#X connect 3 3 11 0;
#X connect 3 4 11 0;
#X connect 3 5 11 0;
#X connect 3 6 11 0;
#X connect 3 7 11 0;
#X connect 3 8 12 0;
#X connect 4 0 2 1;
#X connect 5 0 7 0;
#X connect 6 0 8 0;
#X connect 7 0 9 0;
#X connect 8 0 9 0;
#X connect 9 0 30 0;
#X connect 10 0 5 0;
#X connect 10 1 5 0;
#X connect 10 2 5 0;
#X connect 10 3 5 0;
#X connect 10 4 5 0;
#X connect 10 5 5 0;
#X connect 10 6 5 0;
#X connect 10 7 5 0;
#X connect 10 8 6 0;
#X connect 11 0 13 0;
#X connect 12 0 14 0;
#X connect 13 0 15 0;
#X connect 14 0 15 0;
#X connect 15 0 29 0;
#X connect 16 0 18 0;
#X connect 17 0 19 0;
#X connect 18 0 20 0;
#X connect 19 0 20 0;
#X connect 20 0 32 0;
#X connect 21 0 23 0;
#X connect 22 0 24 0;
#X connect 23 0 25 0;
#X connect 24 0 25 0;
#X connect 25 0 31 0;
#X connect 26 0 21 0;
#X connect 26 1 21 0;
#X connect 26 2 21 0;
#X connect 26 3 21 0;
#X connect 26 4 21 0;
#X connect 26 5 21 0;
#X connect 26 6 21 0;
#X connect 26 7 21 0;
#X connect 26 8 22 0;
#X connect 27 0 16 0;
#X connect 27 1 16 0;
#X connect 27 2 16 0;
#X connect 27 3 16 0;
#X connect 27 4 16 0;
#X connect 27 5 16 0;
#X connect 27 6 16 0;
#X connect 27 7 16 0;
#X connect 27 8 17 0;
#X connect 28 0 2 0;
