#N canvas 441 101 1445 907 10;
#X obj 473 212 adc~ 3;
#X obj 318 13 loadbang;
#X obj 472 239 snapshot~;
#X obj 318 112 tgl 15 0 empty empty empty 17 7 0 10 #fcfcfc #000000
#000000 0 1;
#X obj 101 65 s bela_setDigital;
#X msg 101 44 out 11;
#X obj 213 64 s bela_setDigital;
#X obj 324 64 s bela_setDigital;
#X obj 434 64 s bela_setDigital;
#X msg 213 43 out 12;
#X msg 324 43 out 13;
#X msg 434 43 out 14;
#X obj 318 134 metro 10;
#N canvas 726 867 544 300 mux1DigitalOutputs 0;
#X obj 21 44 inlet;
#X obj 142 74 s bela_digitalOut12;
#X obj 21 74 s bela_digitalOut11;
#X obj 263 74 s bela_digitalOut13;
#X obj 384 74 s bela_digitalOut14;
#X obj 144 46 inlet;
#X obj 264 45 inlet;
#X obj 384 45 inlet;
#X text 41 20 Set desired status to digital outputs (true or false)
for address MUX, f 70;
#X connect 0 0 2 0;
#X connect 5 0 1 0;
#X connect 6 0 3 0;
#X connect 7 0 4 0;
#X restore 94 303 pd mux1DigitalOutputs;
#X obj 96 278 CD74HC4067, f 126;
#X obj 410 211 delay 5;
#X obj 609 104 inlet;
#X obj 109 661 loadbang;
#X obj 45 710 mapFunctionToMidi;
#X obj 45 731 s mux1pot1midiValue;
#X obj 235 661 loadbang;
#X obj 171 710 mapFunctionToMidi;
#X msg 220 686 1;
#X obj 171 731 s mux1pot2midiValue;
#X text 77 8 Initialize digital outputs;
#X text 408 188 Read analog input;
#X text 651 103 Change multiplexer frequency;
#X obj 361 661 loadbang;
#X obj 297 710 mapFunctionToMidi;
#X obj 297 731 s mux1pot3midiValue;
#X msg 346 686 5;
#X obj 486 660 loadbang;
#X obj 422 709 mapFunctionToMidi;
#X msg 471 685 5;
#X obj 422 730 s mux1pot4midiValue;
#X obj 611 659 loadbang;
#X obj 547 708 mapFunctionToMidi;
#X msg 596 684 5;
#X obj 547 729 s mux1pot5midiValue;
#X obj 736 659 loadbang;
#X obj 672 708 mapFunctionToMidi;
#X obj 672 729 s mux1pot6midiValue;
#X msg 721 684 19;
#X obj 862 658 loadbang;
#X obj 798 707 mapFunctionToMidi;
#X obj 988 658 loadbang;
#X obj 924 707 mapFunctionToMidi;
#X obj 798 728 s mux1pot7midiValue;
#X obj 924 728 s mux1pot8midiValue;
#X msg 847 683 7;
#X obj 108 758 loadbang;
#X msg 93 783 4;
#X obj 44 807 mapFunctionToMidi;
#X obj 234 758 loadbang;
#X obj 170 807 mapFunctionToMidi;
#X obj 360 758 loadbang;
#X obj 296 807 mapFunctionToMidi;
#X msg 345 783 5;
#X obj 485 757 loadbang;
#X obj 421 806 mapFunctionToMidi;
#X msg 470 782 5;
#X obj 610 756 loadbang;
#X obj 546 805 mapFunctionToMidi;
#X msg 595 781 5;
#X obj 735 756 loadbang;
#X obj 671 805 mapFunctionToMidi;
#X msg 720 781 19;
#X obj 861 755 loadbang;
#X obj 797 804 mapFunctionToMidi;
#X obj 987 755 loadbang;
#X obj 923 804 mapFunctionToMidi;
#X msg 846 780 7;
#X obj 44 828 s mux1pot9midiValue;
#X obj 170 828 s mux1pot10midiValue;
#X obj 296 828 s mux1pot11midiValue;
#X obj 421 827 s mux1pot12midiValue;
#X obj 546 826 s mux1pot13midiValue;
#X obj 671 826 s mux1pot14midiValue;
#X obj 797 825 s mux1pot15midiValue;
#X obj 923 825 s mux1pot16midiValue;
#X msg 972 780 9;
#X msg 219 783 40;
#X text 349 860 Scaling analog values to MIDI values (0 - 127);
#X text 89 321 Set desired status to digital outputs (true or false)
for address MUX, f 24;
#X obj 849 243 tgl 15 1 empty empty Print\\\ values 17 7 0 10 #fcfcfc
#000000 #000000 0 1;
#X text 569 19 Initialize how digital outputs use for control MUX from
Bela. For this example i'm using 11 \, 12 \, 13 and 14, f 61;
#X text 569 45 See Bela documentation: https://learn.bela.io/tutorials/pure-data/connecting/digital-output/
, f 71;
#X msg 248 686 998;
#X msg 374 686 998;
#X msg 499 685 998;
#X msg 624 684 998;
#X msg 749 684 998;
#X msg 875 683 998;
#X msg 1000 780 998;
#X msg 874 780 998;
#X msg 748 781 998;
#X msg 623 781 998;
#X msg 498 782 998;
#X msg 373 783 998;
#X msg 247 783 998;
#X msg 121 783 998;
#X text 1027 683 Min and max analog input REAL value;
#X text 1039 705 Scale analog value to Midi;
#X text 1047 727 Send analog values to patches;
#X text 847 223 Switch on to:;
#X text 1029 781 Min and max analog input REAL value;
#X text 1041 803 Scale analog value to Midi;
#X text 1049 825 Send analog values to patches;
#X obj 864 596 s mux1pot1rawValue;
#X obj 864 574 s mux1pot2rawValue;
#X obj 863 551 s mux1pot3rawValue;
#X obj 863 528 s mux1pot4rawValue;
#X obj 863 506 s mux1pot5rawValue;
#X obj 862 483 s mux1pot6rawValue;
#X obj 862 461 s mux1pot7rawValue;
#X obj 861 438 s mux1pot8rawValue;
#X obj 1111 516 s mux1pot9rawValue;
#X obj 1111 494 s mux1pot10rawValue;
#X obj 1111 471 s mux1pot11rawValue;
#X obj 1111 448 s mux1pot12rawValue;
#X obj 1111 426 s mux1pot13rawValue;
#X obj 1111 403 s mux1pot14rawValue;
#X obj 1111 381 s mux1pot15rawValue;
#X obj 1111 358 s mux1pot16rawValue;
#X msg 973 683 3;
#X msg 1001 683 999;
#X msg 94 686 3;
#X msg 122 686 999;
#X connect 0 0 2 0;
#X connect 1 0 5 0;
#X connect 1 0 3 0;
#X connect 1 0 9 0;
#X connect 1 0 10 0;
#X connect 1 0 11 0;
#X connect 2 0 14 1;
#X connect 3 0 12 0;
#X connect 5 0 4 0;
#X connect 9 0 6 0;
#X connect 10 0 7 0;
#X connect 11 0 8 0;
#X connect 12 0 14 0;
#X connect 12 0 15 0;
#X connect 14 0 13 0;
#X connect 14 1 13 1;
#X connect 14 2 13 2;
#X connect 14 3 13 3;
#X connect 14 4 18 0;
#X connect 14 4 108 0;
#X connect 14 5 21 0;
#X connect 14 5 109 0;
#X connect 14 6 28 0;
#X connect 14 6 110 0;
#X connect 14 7 32 0;
#X connect 14 7 111 0;
#X connect 14 8 36 0;
#X connect 14 8 112 0;
#X connect 14 9 40 0;
#X connect 14 9 113 0;
#X connect 14 10 44 0;
#X connect 14 10 114 0;
#X connect 14 11 46 0;
#X connect 14 11 115 0;
#X connect 14 12 52 0;
#X connect 14 12 116 0;
#X connect 14 13 54 0;
#X connect 14 13 117 0;
#X connect 14 14 56 0;
#X connect 14 14 118 0;
#X connect 14 15 59 0;
#X connect 14 15 119 0;
#X connect 14 16 62 0;
#X connect 14 16 120 0;
#X connect 14 17 65 0;
#X connect 14 17 121 0;
#X connect 14 18 68 0;
#X connect 14 18 122 0;
#X connect 14 19 70 0;
#X connect 14 19 123 0;
#X connect 15 0 2 0;
#X connect 16 0 12 1;
#X connect 17 0 126 0;
#X connect 17 0 127 0;
#X connect 18 0 19 0;
#X connect 20 0 22 0;
#X connect 20 0 87 0;
#X connect 21 0 23 0;
#X connect 22 0 21 1;
#X connect 27 0 30 0;
#X connect 27 0 88 0;
#X connect 28 0 29 0;
#X connect 30 0 28 1;
#X connect 31 0 33 0;
#X connect 31 0 89 0;
#X connect 32 0 34 0;
#X connect 33 0 32 1;
#X connect 35 0 37 0;
#X connect 35 0 90 0;
#X connect 36 0 38 0;
#X connect 37 0 36 1;
#X connect 39 0 42 0;
#X connect 39 0 91 0;
#X connect 40 0 41 0;
#X connect 42 0 40 1;
#X connect 43 0 49 0;
#X connect 43 0 92 0;
#X connect 44 0 47 0;
#X connect 45 0 124 0;
#X connect 45 0 125 0;
#X connect 46 0 48 0;
#X connect 49 0 44 1;
#X connect 50 0 51 0;
#X connect 50 0 100 0;
#X connect 51 0 52 1;
#X connect 52 0 72 0;
#X connect 53 0 81 0;
#X connect 53 0 99 0;
#X connect 54 0 73 0;
#X connect 55 0 57 0;
#X connect 55 0 98 0;
#X connect 56 0 74 0;
#X connect 57 0 56 1;
#X connect 58 0 60 0;
#X connect 58 0 97 0;
#X connect 59 0 75 0;
#X connect 60 0 59 1;
#X connect 61 0 63 0;
#X connect 61 0 96 0;
#X connect 62 0 76 0;
#X connect 63 0 62 1;
#X connect 64 0 66 0;
#X connect 64 0 95 0;
#X connect 65 0 77 0;
#X connect 66 0 65 1;
#X connect 67 0 71 0;
#X connect 67 0 94 0;
#X connect 68 0 78 0;
#X connect 69 0 80 0;
#X connect 69 0 93 0;
#X connect 70 0 79 0;
#X connect 71 0 68 1;
#X connect 80 0 70 1;
#X connect 81 0 54 1;
#X connect 84 0 14 2;
#X connect 87 0 21 2;
#X connect 88 0 28 2;
#X connect 89 0 32 2;
#X connect 90 0 36 2;
#X connect 91 0 40 2;
#X connect 92 0 44 2;
#X connect 93 0 70 2;
#X connect 94 0 68 2;
#X connect 95 0 65 2;
#X connect 96 0 62 2;
#X connect 97 0 59 2;
#X connect 98 0 56 2;
#X connect 99 0 54 2;
#X connect 100 0 52 2;
#X connect 124 0 46 1;
#X connect 125 0 46 2;
#X connect 126 0 18 1;
#X connect 127 0 18 2;
