#N canvas 662 565 1140 431 12;
#X obj 231 122 CD74HC4067_ReadAnalogInput, f 106;
#X obj 231 88 inlet value;
#X obj 56 21 inlet counter;
#X obj 56 49 CD74HC4067_DigitalOutputControl;
#X obj 11 130 outlet;
#X obj 60 130 outlet;
#X obj 109 130 outlet;
#X obj 158 130 outlet;
#X obj 231 145 outlet;
#X obj 280 145 outlet;
#X obj 329 145 outlet;
#X obj 378 145 outlet;
#X obj 428 145 outlet;
#X obj 477 145 outlet;
#X obj 526 145 outlet;
#X obj 575 145 outlet;
#X obj 625 145 outlet;
#X obj 674 145 outlet;
#X obj 723 145 outlet;
#X obj 772 145 outlet;
#X obj 822 145 outlet;
#X obj 871 145 outlet;
#X obj 920 145 outlet;
#X obj 970 145 outlet;
#X obj 231 258 print A1;
#X obj 231 227 spigot;
#X obj 270 205 tgl 15 0 empty empty empty 17 7 0 10 #fcfcfc #000000
#000000 0 1;
#X obj 734 38 inlet printValues;
#X obj 734 62 s \$0-print;
#X obj 270 181 r \$0-print;
#X connect 0 0 8 0;
#X connect 0 0 25 0;
#X connect 0 1 9 0;
#X connect 0 2 10 0;
#X connect 0 3 11 0;
#X connect 0 4 12 0;
#X connect 0 5 13 0;
#X connect 0 6 14 0;
#X connect 0 7 15 0;
#X connect 0 8 16 0;
#X connect 0 9 17 0;
#X connect 0 10 18 0;
#X connect 0 11 19 0;
#X connect 0 12 20 0;
#X connect 0 13 21 0;
#X connect 0 14 22 0;
#X connect 0 15 23 0;
#X connect 1 0 0 0;
#X connect 2 0 3 0;
#X connect 3 0 4 0;
#X connect 3 1 5 0;
#X connect 3 2 6 0;
#X connect 3 3 7 0;
#X connect 3 4 0 1;
#X connect 25 0 24 0;
#X connect 26 0 25 1;
#X connect 27 0 28 0;
#X connect 29 0 26 0;
