#N canvas 482 619 1653 646 12;
#X obj 231 122 CD74HC4067_ReadAnalogInput, f 142;
#X obj 231 88 inlet value;
#X obj 56 21 inlet counter;
#X obj 56 49 CD74HC4067_DigitalOutputControl;
#X obj 11 130 outlet;
#X obj 60 130 outlet;
#X obj 109 130 outlet;
#X obj 158 130 outlet;
#X obj 231 160 outlet;
#X obj 297 160 outlet;
#X obj 363 160 outlet;
#X obj 429 160 outlet;
#X obj 495 160 outlet;
#X obj 561 160 outlet;
#X obj 627 160 outlet;
#X obj 693 160 outlet;
#X obj 759 160 outlet;
#X obj 825 160 outlet;
#X obj 891 160 outlet;
#X obj 957 160 outlet;
#X obj 1023 160 outlet;
#X obj 1089 160 outlet;
#X obj 1155 160 outlet;
#X obj 1222 160 outlet;
#X obj 102 377 print A1;
#X obj 102 346 spigot;
#X obj 141 324 tgl 15 0 empty empty empty 17 7 0 10 #fcfcfc #000000
#000000 0 1;
#X obj 1406 199 inlet printValues;
#X obj 1406 223 s \$0-print;
#X obj 141 300 r \$0-print;
#X obj 186 346 spigot;
#X obj 225 324 tgl 15 0 empty empty empty 17 7 0 10 #fcfcfc #000000
#000000 0 1;
#X obj 225 300 r \$0-print;
#X obj 186 377 print A2;
#X obj 270 346 spigot;
#X obj 309 324 tgl 15 0 empty empty empty 17 7 0 10 #fcfcfc #000000
#000000 0 1;
#X obj 309 300 r \$0-print;
#X obj 354 346 spigot;
#X obj 393 324 tgl 15 0 empty empty empty 17 7 0 10 #fcfcfc #000000
#000000 0 1;
#X obj 393 300 r \$0-print;
#X obj 270 377 print A3;
#X obj 354 377 print A4;
#X text 14 155 Outlets for digital outputs;
#X text 1279 144 Outlets with analog values from MUX;
#X obj 439 346 spigot;
#X obj 478 324 tgl 15 0 empty empty empty 17 7 0 10 #fcfcfc #000000
#000000 0 1;
#X obj 478 300 r \$0-print;
#X obj 523 346 spigot;
#X obj 562 324 tgl 15 0 empty empty empty 17 7 0 10 #fcfcfc #000000
#000000 0 1;
#X obj 562 300 r \$0-print;
#X obj 607 346 spigot;
#X obj 646 324 tgl 15 0 empty empty empty 17 7 0 10 #fcfcfc #000000
#000000 0 1;
#X obj 646 300 r \$0-print;
#X obj 691 346 spigot;
#X obj 730 324 tgl 15 0 empty empty empty 17 7 0 10 #fcfcfc #000000
#000000 0 1;
#X obj 730 300 r \$0-print;
#X obj 439 377 print A5;
#X obj 523 377 print A6;
#X obj 607 377 print A7;
#X obj 691 377 print A8;
#X obj 774 346 spigot;
#X obj 813 324 tgl 15 0 empty empty empty 17 7 0 10 #fcfcfc #000000
#000000 0 1;
#X obj 813 300 r \$0-print;
#X obj 858 346 spigot;
#X obj 897 324 tgl 15 0 empty empty empty 17 7 0 10 #fcfcfc #000000
#000000 0 1;
#X obj 897 300 r \$0-print;
#X obj 942 346 spigot;
#X obj 981 324 tgl 15 0 empty empty empty 17 7 0 10 #fcfcfc #000000
#000000 0 1;
#X obj 981 300 r \$0-print;
#X obj 1026 346 spigot;
#X obj 1065 324 tgl 15 0 empty empty empty 17 7 0 10 #fcfcfc #000000
#000000 0 1;
#X obj 1065 300 r \$0-print;
#X obj 1111 346 spigot;
#X obj 1150 324 tgl 15 0 empty empty empty 17 7 0 10 #fcfcfc #000000
#000000 0 1;
#X obj 1150 300 r \$0-print;
#X obj 1195 346 spigot;
#X obj 1234 324 tgl 15 0 empty empty empty 17 7 0 10 #fcfcfc #000000
#000000 0 1;
#X obj 1234 300 r \$0-print;
#X obj 1279 346 spigot;
#X obj 1318 324 tgl 15 0 empty empty empty 17 7 0 10 #fcfcfc #000000
#000000 0 1;
#X obj 1318 300 r \$0-print;
#X obj 1363 346 spigot;
#X obj 1402 324 tgl 15 0 empty empty empty 17 7 0 10 #fcfcfc #000000
#000000 0 1;
#X obj 1402 300 r \$0-print;
#X obj 774 377 print A9;
#X obj 858 377 print A10;
#X obj 942 377 print A11;
#X obj 1026 377 print A12;
#X obj 1111 377 print A13;
#X obj 1195 377 print A14;
#X obj 1279 377 print A15;
#X obj 1363 377 print A16;
#X text 500 10 This patch control 4 digital outputs for MUX channel
address control \, read analog values form MUX output and share as
16 analog values, f 71;
#X text 624 407 Print analog RAW values;
#X connect 0 0 8 0;
#X connect 0 0 25 0;
#X connect 0 1 9 0;
#X connect 0 1 30 0;
#X connect 0 2 10 0;
#X connect 0 2 34 0;
#X connect 0 3 11 0;
#X connect 0 3 37 0;
#X connect 0 4 12 0;
#X connect 0 4 44 0;
#X connect 0 5 13 0;
#X connect 0 5 47 0;
#X connect 0 6 14 0;
#X connect 0 6 50 0;
#X connect 0 7 15 0;
#X connect 0 7 53 0;
#X connect 0 8 16 0;
#X connect 0 8 60 0;
#X connect 0 9 17 0;
#X connect 0 9 63 0;
#X connect 0 10 18 0;
#X connect 0 10 66 0;
#X connect 0 11 19 0;
#X connect 0 11 69 0;
#X connect 0 12 20 0;
#X connect 0 12 72 0;
#X connect 0 13 21 0;
#X connect 0 13 75 0;
#X connect 0 14 22 0;
#X connect 0 14 78 0;
#X connect 0 15 23 0;
#X connect 0 15 81 0;
#X connect 1 0 0 0;
#X connect 2 0 3 0;
#X connect 3 0 4 0;
#X connect 3 1 5 0;
#X connect 3 2 6 0;
#X connect 3 3 7 0;
#X connect 3 4 0 1;
#X connect 25 0 24 0;
#X connect 26 0 25 1;
#X connect 27 0 28 0;
#X connect 29 0 26 0;
#X connect 30 0 33 0;
#X connect 31 0 30 1;
#X connect 32 0 31 0;
#X connect 34 0 40 0;
#X connect 35 0 34 1;
#X connect 36 0 35 0;
#X connect 37 0 41 0;
#X connect 38 0 37 1;
#X connect 39 0 38 0;
#X connect 44 0 56 0;
#X connect 45 0 44 1;
#X connect 46 0 45 0;
#X connect 47 0 57 0;
#X connect 48 0 47 1;
#X connect 49 0 48 0;
#X connect 50 0 58 0;
#X connect 51 0 50 1;
#X connect 52 0 51 0;
#X connect 53 0 59 0;
#X connect 54 0 53 1;
#X connect 55 0 54 0;
#X connect 60 0 84 0;
#X connect 61 0 60 1;
#X connect 62 0 61 0;
#X connect 63 0 85 0;
#X connect 64 0 63 1;
#X connect 65 0 64 0;
#X connect 66 0 86 0;
#X connect 67 0 66 1;
#X connect 68 0 67 0;
#X connect 69 0 87 0;
#X connect 70 0 69 1;
#X connect 71 0 70 0;
#X connect 72 0 88 0;
#X connect 73 0 72 1;
#X connect 74 0 73 0;
#X connect 75 0 89 0;
#X connect 76 0 75 1;
#X connect 77 0 76 0;
#X connect 78 0 90 0;
#X connect 79 0 78 1;
#X connect 80 0 79 0;
#X connect 81 0 91 0;
#X connect 82 0 81 1;
#X connect 83 0 82 0;
