#N canvas 221 7 996 1028 10;
#X obj 67 119 mtof;
#X obj 67 505 dac~ 1 2;
#X obj 12 35 s inA1;
#X obj 67 63 r inA1;
#X obj 67 464 *~ 0.9;
#X obj 67 91 quantizeGmScale 0.0002 0.9;
#X obj 59 35 s inA2;
#X obj 424 41 pepperInitializeDigitalGpio;
#X obj 86 296 pepperReadDigital 1;
#X obj 67 333 waveFormSelector;
#X obj 441 495 selFromFour;
#X obj 232 531 pepperWriteLed 1;
#X obj 360 532 pepperWriteLed 2;
#X obj 489 532 pepperWriteLed 3;
#X obj 617 533 pepperWriteLed 4;
#X obj 113 314 r inA2;
#X obj 107 35 s inA3;
#X obj 100 359 r inA3;
#X obj 120 410 line;
#X msg 120 380 \$1 10;
#X obj 325 486 loadbang;
#X obj 204 229 dac~ 3;
#X msg 325 507 1;
#X obj 204 201 pepperMidiToCvOut 1.013;
#X obj 12 14 pepperReadAnalogInputs 1, f 56;
#X connect 0 0 9 0;
#X connect 3 0 5 0;
#X connect 4 0 1 0;
#X connect 4 0 1 1;
#X connect 5 0 0 0;
#X connect 5 0 23 0;
#X connect 8 2 9 2;
#X connect 9 0 4 0;
#X connect 9 1 10 0;
#X connect 10 0 11 1;
#X connect 10 1 12 1;
#X connect 10 2 13 1;
#X connect 10 3 14 1;
#X connect 15 0 9 1;
#X connect 17 0 19 0;
#X connect 17 0 4 1;
#X connect 19 0 18 0;
#X connect 20 0 22 0;
#X connect 22 0 11 1;
#X connect 23 0 21 0;
#X connect 24 0 2 0;
#X connect 24 1 6 0;
#X connect 24 2 16 0;
