#N canvas 407 94 862 632 12;
#X obj 15 15 inlet freq;
#X obj 498 15 inlet pulseInput;
#X obj 79 118 triangle~;
#X obj 159 117 sawtooth~;
#X obj 239 116 square~ 0.5;
#X obj 31 119 osc~;
#X obj 498 61 loop 4, f 14;
#X obj 30 397 *~;
#X obj 80 397 *~;
#X obj 160 397 *~;
#X obj 240 397 *~;
#X obj 31 470 outlet~;
#X obj 313 15 inlet pwmCv;
#X obj 338 115 outlet selValue;
#X obj 498 97 selFromFour;
#X obj 448 284 line;
#X msg 448 253 \$1 1000;
#X obj 518 284 line;
#X msg 518 253 \$1 1000;
#X obj 588 284 line;
#X msg 588 253 \$1 1000;
#X obj 658 284 line;
#X msg 658 253 \$1 1000;
#X connect 0 0 5 0;
#X connect 0 0 2 0;
#X connect 0 0 3 0;
#X connect 0 0 4 0;
#X connect 1 0 6 0;
#X connect 2 0 8 0;
#X connect 3 0 9 0;
#X connect 4 0 10 0;
#X connect 5 0 7 0;
#X connect 6 0 13 0;
#X connect 6 0 14 0;
#X connect 7 0 11 0;
#X connect 8 0 11 0;
#X connect 9 0 11 0;
#X connect 10 0 11 0;
#X connect 12 0 4 1;
#X connect 14 0 16 0;
#X connect 14 1 18 0;
#X connect 14 2 20 0;
#X connect 14 3 22 0;
#X connect 15 0 7 1;
#X connect 16 0 15 0;
#X connect 17 0 8 1;
#X connect 18 0 17 0;
#X connect 19 0 9 1;
#X connect 20 0 19 0;
#X connect 21 0 10 1;
#X connect 22 0 21 0;
