#N canvas 680 97 1145 709 10;
#X obj 4 648 dac~ 1 2, f 34;
#X obj 6 6 pepperInitializeDigitalGpio;
#X obj 27 76 s cv1;
#X obj 619 11 adc~ 1;
#X obj 759 11 adc~ 2;
#X obj 5 244 pingPong, f 32;
#X obj 4 627 *~;
#X obj 204 627 *~;
#X obj 63 76 s cv2;
#X obj 99 76 s cv3;
#X obj 135 76 s cv4;
#X obj 171 76 s cv5;
#X obj 207 76 s cv6;
#X obj 243 76 s cv7;
#X obj 279 76 s cv8;
#X obj 19 601 r cv8;
#X obj 1003 42 pepperLed1;
#X obj 753 382 pepperLed2;
#X obj 773 362 pepperLed3;
#X obj 793 342 pepperLed4;
#X obj 813 322 pepperLed5;
#X obj 833 302 pepperLed6;
#X obj 853 282 pepperLed7;
#X obj 873 262 pepperLed8;
#X obj 893 242 pepperLed9;
#X obj 913 222 pepperLed10;
#X obj 1003 17 r B4;
#X obj 905 18 r tB4;
#X obj 199 6 prepareDigitalInputs;
#X obj 549 29 s menu10;
#X obj 528 49 s menu9;
#X obj 508 69 s menu8;
#X obj 488 89 s menu7;
#X obj 468 109 s menu6;
#X obj 873 173 r menu10;
#X obj 853 193 r menu9;
#X obj 833 213 r menu8;
#X obj 813 233 r menu7;
#X obj 793 253 r menu6;
#X obj 408 6 menuSelector, f 24;
#X obj 905 43 tapTempo 4;
#X obj 759 45 s~ dryRight;
#X obj 619 45 s~ dryLeft;
#X obj 5 330 r~ dryLeft;
#X obj 5 161 r~ dryLeft;
#X obj 6 35 manageCvInputs, f 31;
#X obj 156 180 r pingPong;
#X obj 408 169 s main;
#X obj 734 312 r main;
#X obj 753 293 r pingPong;
#X obj 428 149 s pingPong;
#X obj 5 265 s~ pingPongLeft;
#X obj 194 265 s~ pingPongRight;
#X obj 327 603 r~ dryRight;
#X obj 185 423 r~ pingPongLeft;
#X obj 204 443 r~ pingPongRight;
#X obj 4 568 mixer, f 34;
#X obj 219 601 r cv8;
#X obj 905 64 s bpm;
#X obj 194 221 r bpm;
#X obj 164 381 r main;
#X obj 6 56 s cv;
#X obj 156 201 delayToggle 500;
#X obj 164 402 delayToggle 500;
#X obj 42 182 r cv1;
#X obj 80 182 r cv2;
#X obj 116 182 r cv3;
#X obj 14 362 r cv1;
#X obj 34 378 r cv2;
#X obj 54 394 r cv3;
#X obj 74 410 r cv4;
#X obj 94 426 r cv5;
#X obj 114 442 r cv6;
#X obj 134 458 r cv7;
#X obj 428 282 chorus, f 30;
#X obj 448 129 s chorus;
#X obj 773 273 r chorus;
#X obj 428 211 r~ dryLeft;
#X obj 589 252 delayToggle 500;
#X obj 434 232 r cv1;
#X obj 472 232 r cv2;
#X obj 508 232 r cv3;
#X obj 546 232 r cv4;
#X obj 589 231 r chorus;
#X obj 428 303 s~ chorusLeft;
#X obj 219 468 r~ chorusLeft;
#X connect 3 0 42 0;
#X connect 4 0 41 0;
#X connect 5 0 51 0;
#X connect 5 1 52 0;
#X connect 6 0 0 0;
#X connect 7 0 0 1;
#X connect 15 0 6 1;
#X connect 26 0 16 0;
#X connect 27 0 40 0;
#X connect 34 0 25 0;
#X connect 35 0 24 0;
#X connect 36 0 23 0;
#X connect 37 0 22 0;
#X connect 38 0 21 0;
#X connect 39 0 47 0;
#X connect 39 1 50 0;
#X connect 39 2 75 0;
#X connect 39 3 33 0;
#X connect 39 4 32 0;
#X connect 39 5 31 0;
#X connect 39 6 30 0;
#X connect 39 7 29 0;
#X connect 40 0 58 0;
#X connect 43 0 56 0;
#X connect 44 0 5 0;
#X connect 45 0 61 0;
#X connect 45 1 2 0;
#X connect 45 2 8 0;
#X connect 45 3 9 0;
#X connect 45 4 10 0;
#X connect 45 5 11 0;
#X connect 45 6 12 0;
#X connect 45 7 13 0;
#X connect 45 8 14 0;
#X connect 46 0 62 0;
#X connect 48 0 18 0;
#X connect 49 0 19 0;
#X connect 54 0 56 9;
#X connect 55 0 56 10;
#X connect 56 0 6 0;
#X connect 56 1 7 0;
#X connect 57 0 7 1;
#X connect 59 0 5 5;
#X connect 60 0 63 0;
#X connect 62 0 5 4;
#X connect 63 0 56 8;
#X connect 64 0 5 1;
#X connect 65 0 5 2;
#X connect 66 0 5 3;
#X connect 67 0 56 1;
#X connect 68 0 56 2;
#X connect 69 0 56 3;
#X connect 70 0 56 4;
#X connect 71 0 56 5;
#X connect 72 0 56 6;
#X connect 73 0 56 7;
#X connect 74 0 84 0;
#X connect 76 0 20 0;
#X connect 77 0 74 0;
#X connect 78 0 74 5;
#X connect 79 0 74 1;
#X connect 80 0 74 2;
#X connect 81 0 74 3;
#X connect 82 0 74 4;
#X connect 83 0 78 0;
#X connect 85 0 56 11;
