#N canvas 703 373 917 560 12;
#X obj 24 25 inlet~ audio;
#X obj 507 25 inlet cv;
#X obj 714 26 inlet tempo;
#X obj 714 50 expr 60000 / $f1;
#X text 803 25 Tempo to MS;
#X obj 507 69 spigot;
#X obj 617 25 inlet select;
#X obj 323 305 line~;
#X obj 274 473 *~;
#X obj 292 447 * 0.99;
#X obj 714 74 change;
#X obj 24 482 clip~ -1 1;
#X obj 204 25 inlet cv;
#X obj 204 69 spigot;
#X obj 410 25 inlet cv;
#X obj 410 69 spigot;
#X obj 25 50 delwrite~ chorus 1000;
#X obj 24 452 r~ chorus;
#X obj 204 93 s chorusRate;
#X obj 410 93 s chorusDepth;
#X obj 507 93 s chorusAmount;
#X obj 292 422 r chorusAmount;
#X obj 274 496 s~ chorus;
#X obj 714 98 s chorusTempo;
#X msg 323 281 \$1 20;
#X obj 297 25 inlet cv;
#X obj 297 69 spigot;
#X obj 297 93 s chorusDelTime;
#X obj 323 216 r chorusDelTime;
#X obj 323 240 mapFunction 0 1 1 20;
#X obj 273 136 r chorusRate;
#X obj 273 184 osc~;
#X obj 273 208 *~;
#X obj 309 184 r chorusDepth;
#X obj 273 332 +~;
#X obj 274 379 delread4~ chorus 1000;
#X obj 23 511 outlet~;
#X obj 273 160 mapFunction 0 1 1 10;
#X connect 0 0 16 0;
#X connect 1 0 5 0;
#X connect 2 0 3 0;
#X connect 3 0 10 0;
#X connect 5 0 20 0;
#X connect 6 0 5 1;
#X connect 6 0 15 1;
#X connect 6 0 13 1;
#X connect 6 0 26 1;
#X connect 7 0 34 1;
#X connect 8 0 22 0;
#X connect 9 0 8 1;
#X connect 10 0 23 0;
#X connect 11 0 36 0;
#X connect 12 0 13 0;
#X connect 13 0 18 0;
#X connect 14 0 15 0;
#X connect 15 0 19 0;
#X connect 17 0 11 0;
#X connect 21 0 9 0;
#X connect 24 0 7 0;
#X connect 25 0 26 0;
#X connect 26 0 27 0;
#X connect 28 0 29 0;
#X connect 29 0 24 0;
#X connect 30 0 37 0;
#X connect 31 0 32 0;
#X connect 32 0 34 0;
#X connect 33 0 32 1;
#X connect 34 0 35 0;
#X connect 35 0 8 0;
#X connect 37 0 31 0;
