#N canvas 144 272 1639 680 12;
#X obj 15 252 adc~ 3;
#X obj 16 332 snapshot~;
#X obj 382 132 metro;
#X obj 382 103 tgl 15 1 empty empty empty 17 7 0 10 #fcfcfc #000000
#000000 1 1;
#X obj 384 39 inlet;
#X obj 431 39 loadbang;
#X obj 431 63 f \$1;
#X text 386 11 PARAM 1: Milliseconds;
#X obj 106 329 snapshot~;
#X obj 202 328 snapshot~;
#X obj 301 329 snapshot~;
#X obj 397 327 snapshot~;
#X obj 487 324 snapshot~;
#X obj 583 323 snapshot~;
#X obj 682 324 snapshot~;
#X obj 105 249 adc~ 4;
#X obj 201 248 adc~ 5;
#X obj 300 249 adc~ 6;
#X obj 396 247 adc~ 7;
#X obj 486 244 adc~ 8;
#X obj 582 244 adc~ 9;
#X obj 681 244 adc~ 10;
#X obj 15 496 change;
#X obj 15 466 floatList;
#X obj 185 496 change;
#X obj 185 466 floatList;
#X obj 15 556 outlet;
#X obj 185 556 outlet;
#X obj 355 496 change;
#X obj 355 466 floatList;
#X obj 525 496 change;
#X obj 525 466 floatList;
#X obj 355 556 outlet;
#X obj 525 556 outlet;
#X obj 695 496 change;
#X obj 695 466 floatList;
#X obj 865 496 change;
#X obj 865 466 floatList;
#X obj 695 556 outlet;
#X obj 865 556 outlet;
#X obj 1035 496 change;
#X obj 1035 466 floatList;
#X obj 1205 496 change;
#X obj 1205 466 floatList;
#X obj 1205 527 mapFunction 0 0.927 0 1;
#X obj 1035 556 outlet;
#X obj 1205 556 outlet;
#X obj 382 165 i;
#X obj 416 165 + 1;
#X obj 382 189 % 8;
#X obj 382 213 sel 0 1 2 3 4 5 6 7;
#X obj 15 527 mapFunction 0 0.907 0 1;
#X obj 185 527 mapFunction 0 0.926 0 1;
#X obj 355 527 mapFunction 0 0.903 0 1;
#X obj 525 527 mapFunction 0 0.894 0 1;
#X obj 695 527 mapFunction 0 0.9 0 1;
#X obj 1035 527 mapFunction 0 0.876 0 1;
#X obj 865 527 mapFunction 0 0.925 0 1;
#X connect 0 0 1 0;
#X connect 1 0 23 0;
#X connect 2 0 47 0;
#X connect 3 0 2 0;
#X connect 4 0 2 1;
#X connect 5 0 6 0;
#X connect 6 0 2 1;
#X connect 8 0 35 0;
#X connect 9 0 25 0;
#X connect 10 0 37 0;
#X connect 11 0 29 0;
#X connect 12 0 41 0;
#X connect 13 0 31 0;
#X connect 14 0 43 0;
#X connect 15 0 8 0;
#X connect 16 0 9 0;
#X connect 17 0 10 0;
#X connect 18 0 11 0;
#X connect 19 0 12 0;
#X connect 20 0 13 0;
#X connect 21 0 14 0;
#X connect 22 0 51 0;
#X connect 23 0 22 0;
#X connect 24 0 52 0;
#X connect 25 0 24 0;
#X connect 28 0 53 0;
#X connect 29 0 28 0;
#X connect 30 0 54 0;
#X connect 31 0 30 0;
#X connect 34 0 55 0;
#X connect 35 0 34 0;
#X connect 36 0 57 0;
#X connect 37 0 36 0;
#X connect 40 0 56 0;
#X connect 41 0 40 0;
#X connect 42 0 44 0;
#X connect 43 0 42 0;
#X connect 44 0 46 0;
#X connect 47 0 48 0;
#X connect 47 0 49 0;
#X connect 48 0 47 1;
#X connect 49 0 50 0;
#X connect 50 0 1 0;
#X connect 50 1 8 0;
#X connect 50 2 9 0;
#X connect 50 3 10 0;
#X connect 50 4 11 0;
#X connect 50 5 12 0;
#X connect 50 6 13 0;
#X connect 50 7 14 0;
#X connect 51 0 26 0;
#X connect 52 0 27 0;
#X connect 53 0 32 0;
#X connect 54 0 33 0;
#X connect 55 0 38 0;
#X connect 56 0 45 0;
#X connect 57 0 39 0;
