#N canvas 234 234 450 300 12;
#X obj 61 134 delay 350;
#X obj 41 166 tgl 15 0 empty empty empty 17 7 0 10 #fcfcfc #000000
#000000 0 1;
#X obj 24 49 sel 0 1;
#X obj 47 108 bng 15 250 50 0 empty empty empty 17 7 0 10 #fcfcfc #000000
#000000;
#X msg 24 134 0;
#X obj 24 11 inlet toggle;
#X obj 41 186 outlet;
#X msg 71 108 stop;
#X obj 121 11 loadbang;
#X obj 121 35 f \$1;
#X connect 0 0 1 0;
#X connect 1 0 6 0;
#X connect 2 0 4 0;
#X connect 2 0 7 0;
#X connect 2 1 3 0;
#X connect 3 0 0 0;
#X connect 4 0 1 0;
#X connect 5 0 2 0;
#X connect 7 0 0 0;
#X connect 8 0 9 0;
#X connect 9 0 0 1;
