#N canvas 244 399 578 462 12;
#X obj 91 85 i;
#X obj 125 85 + 1;
#X obj 91 160 t b b;
#X msg 39 197 append \$1;
#X obj 39 221 list store;
#X obj 91 133 sel 0;
#X obj 91 109 % 8;
#X obj 39 245 unpack f f f f f f f f, f 72;
#X obj 39 279 expr ($f1 + $f2 + $f3 + $f4 + $f5 + $f6 + $f7 + $f8)
/8, f 72;
#X obj 39 324 i;
#X obj 39 303 * 1000;
#X obj 39 345 / 1000;
#X obj 39 382 outlet;
#X obj 59 59 t b b;
#X obj 39 20 inlet;
#X connect 0 0 1 0;
#X connect 0 0 6 0;
#X connect 1 0 0 1;
#X connect 2 0 4 1;
#X connect 2 1 4 0;
#X connect 3 0 4 0;
#X connect 4 0 7 0;
#X connect 5 0 2 0;
#X connect 6 0 5 0;
#X connect 7 0 8 0;
#X connect 7 1 8 1;
#X connect 7 2 8 2;
#X connect 7 3 8 3;
#X connect 7 4 8 4;
#X connect 7 5 8 5;
#X connect 7 6 8 6;
#X connect 7 7 8 7;
#X connect 8 0 10 0;
#X connect 9 0 11 0;
#X connect 10 0 9 0;
#X connect 11 0 12 0;
#X connect 13 1 0 0;
#X connect 14 0 13 0;
#X connect 14 0 3 0;
