#N canvas 945 578 450 300 12;
#X obj 163 61 bng 15 250 50 0 empty empty empty 17 7 0 10 #fcfcfc #000000
#000000;
#X obj 47 61 bng 15 250 50 0 empty empty empty 17 7 0 10 #fcfcfc #000000
#000000;
#X obj 163 155 + 1;
#X obj 47 155 - 1;
#X msg 324 82 0;
#X obj 92 249 outlet;
#X obj 13 8 inlet minus;
#X obj 103 8 inlet plus;
#X obj 193 8 inlet reset;
#X obj 162 229 print;
#X obj 47 91 spigot;
#X obj 167 91 spigot;
#X obj 206 61 < 7;
#X obj 330 12 loadbang;
#X obj 92 155 int 0;
#X obj 86 61 > 0;
#X connect 0 0 11 0;
#X connect 1 0 10 0;
#X connect 2 0 14 1;
#X connect 3 0 14 1;
#X connect 4 0 14 0;
#X connect 6 0 1 0;
#X connect 7 0 0 0;
#X connect 8 0 4 0;
#X connect 10 0 3 0;
#X connect 10 0 14 0;
#X connect 11 0 2 0;
#X connect 11 0 14 0;
#X connect 12 0 11 1;
#X connect 13 0 14 0;
#X connect 14 0 2 0;
#X connect 14 0 3 0;
#X connect 14 0 5 0;
#X connect 14 0 9 0;
#X connect 14 0 12 0;
#X connect 14 0 15 0;
#X connect 15 0 10 1;
