#N canvas 78 78 906 319 12;
#X obj 6 15 cvInputs 1, f 70;
#X obj 75 42 t b f;
#X obj 6 209 pack f f f f f f f, f 65;
#X obj 145 42 t b f;
#X obj 214 42 t b f;
#X obj 284 42 t b f;
#X obj 353 42 t b f;
#X obj 423 42 t b f;
#X obj 793 263 outlet cv8;
#X obj 6 263 outlet packed;
#X obj 703 263 outlet cv7;
#X obj 613 263 outlet cv6;
#X obj 523 263 outlet cv5;
#X obj 433 263 outlet cv4;
#X obj 343 263 outlet cv3;
#X obj 253 263 outlet cv2;
#X obj 163 263 outlet cv1;
#X connect 0 0 2 0;
#X connect 0 0 16 0;
#X connect 0 1 1 0;
#X connect 0 1 15 0;
#X connect 0 2 3 0;
#X connect 0 2 14 0;
#X connect 0 3 4 0;
#X connect 0 3 13 0;
#X connect 0 4 5 0;
#X connect 0 4 12 0;
#X connect 0 5 6 0;
#X connect 0 5 11 0;
#X connect 0 6 7 0;
#X connect 0 6 10 0;
#X connect 0 7 8 0;
#X connect 1 0 2 0;
#X connect 1 1 2 1;
#X connect 2 0 9 0;
#X connect 3 0 2 0;
#X connect 3 1 2 2;
#X connect 4 0 2 0;
#X connect 4 1 2 3;
#X connect 5 0 2 0;
#X connect 5 1 2 4;
#X connect 6 0 2 0;
#X connect 6 1 2 5;
#X connect 7 0 2 0;
#X connect 7 1 2 6;
