#N canvas 661 278 812 568 12;
#X msg 16 123 1;
#X msg 46 123 0;
#X msg 93 122 1;
#X msg 123 122 0;
#X msg 188 121 1;
#X msg 217 121 0;
#X msg 282 120 1;
#X msg 311 120 0;
#X obj 40 247 tgl 18 0 empty empty empty 17 7 0 10 #fcfcfc #000000
#000000 0 1;
#X obj 119 247 tgl 18 0 empty empty empty 17 7 0 10 #fcfcfc #000000
#000000 0 1;
#X obj 214 247 tgl 18 0 empty empty empty 17 7 0 10 #fcfcfc #000000
#000000 0 1;
#X obj 305 247 tgl 18 0 empty empty empty 17 7 0 10 #fcfcfc #000000
#000000 0 1;
#X obj 40 270 outlet;
#X obj 119 270 outlet;
#X obj 214 270 outlet;
#X obj 305 270 outlet;
#X msg 375 120 1;
#X msg 405 120 0;
#X msg 473 119 1;
#X msg 503 119 0;
#X msg 563 118 1;
#X msg 592 118 0;
#X msg 656 117 1;
#X msg 685 117 0;
#X obj 399 247 tgl 18 0 empty empty empty 17 7 0 10 #fcfcfc #000000
#000000 0 1;
#X obj 499 247 tgl 18 0 empty empty empty 17 7 0 10 #fcfcfc #000000
#000000 0 1;
#X obj 589 247 tgl 18 0 empty empty empty 17 7 0 10 #fcfcfc #000000
#000000 0 1;
#X obj 679 247 tgl 18 0 empty empty empty 17 7 0 10 #fcfcfc #000000
#000000 0 1;
#X obj 399 270 outlet;
#X obj 499 270 outlet;
#X obj 589 270 outlet;
#X obj 679 270 outlet;
#X obj 16 55 % 8;
#X obj 16 77 sel 0 1 2 3 4 5 6 7, f 106;
#X obj 16 5 r rtB1;
#X obj 71 5 r rtB2;
#X obj 16 28 intTriggerCounter, f 19;
#X connect 0 0 8 0;
#X connect 1 0 9 0;
#X connect 1 0 10 0;
#X connect 1 0 11 0;
#X connect 1 0 24 0;
#X connect 1 0 25 0;
#X connect 1 0 26 0;
#X connect 1 0 27 0;
#X connect 2 0 9 0;
#X connect 3 0 8 0;
#X connect 3 0 10 0;
#X connect 3 0 11 0;
#X connect 3 0 24 0;
#X connect 3 0 25 0;
#X connect 3 0 26 0;
#X connect 3 0 27 0;
#X connect 4 0 10 0;
#X connect 5 0 9 0;
#X connect 5 0 11 0;
#X connect 5 0 8 0;
#X connect 5 0 24 0;
#X connect 5 0 25 0;
#X connect 5 0 26 0;
#X connect 5 0 27 0;
#X connect 6 0 11 0;
#X connect 7 0 10 0;
#X connect 7 0 8 0;
#X connect 7 0 9 0;
#X connect 7 0 24 0;
#X connect 7 0 25 0;
#X connect 7 0 26 0;
#X connect 7 0 27 0;
#X connect 8 0 12 0;
#X connect 9 0 13 0;
#X connect 10 0 14 0;
#X connect 11 0 15 0;
#X connect 16 0 24 0;
#X connect 17 0 25 0;
#X connect 17 0 26 0;
#X connect 17 0 27 0;
#X connect 17 0 8 0;
#X connect 17 0 9 0;
#X connect 17 0 10 0;
#X connect 17 0 11 0;
#X connect 18 0 25 0;
#X connect 19 0 24 0;
#X connect 19 0 26 0;
#X connect 19 0 27 0;
#X connect 19 0 11 0;
#X connect 19 0 10 0;
#X connect 19 0 9 0;
#X connect 19 0 8 0;
#X connect 20 0 26 0;
#X connect 21 0 25 0;
#X connect 21 0 27 0;
#X connect 21 0 24 0;
#X connect 21 0 11 0;
#X connect 21 0 10 0;
#X connect 21 0 9 0;
#X connect 21 0 8 0;
#X connect 22 0 27 0;
#X connect 23 0 26 0;
#X connect 23 0 25 0;
#X connect 23 0 24 0;
#X connect 23 0 11 0;
#X connect 23 0 10 0;
#X connect 23 0 9 0;
#X connect 23 0 8 0;
#X connect 24 0 28 0;
#X connect 25 0 29 0;
#X connect 26 0 30 0;
#X connect 27 0 31 0;
#X connect 32 0 33 0;
#X connect 33 0 0 0;
#X connect 33 0 1 0;
#X connect 33 1 2 0;
#X connect 33 1 3 0;
#X connect 33 2 4 0;
#X connect 33 2 5 0;
#X connect 33 3 6 0;
#X connect 33 3 7 0;
#X connect 33 4 16 0;
#X connect 33 4 17 0;
#X connect 33 5 18 0;
#X connect 33 5 19 0;
#X connect 33 6 20 0;
#X connect 33 6 21 0;
#X connect 33 7 22 0;
#X connect 33 7 23 0;
#X connect 34 0 36 0;
#X connect 35 0 36 1;
#X connect 36 0 32 0;
