#N canvas 606 221 1180 726 12;
#X obj 24 25 inlet~ dry;
#X obj 694 25 inlet~ fxL1;
#X obj 784 25 inlet~ fxR1;
#X obj 114 25 inlet cv;
#X obj 114 59 spigot;
#X obj 544 25 inlet select;
#X obj 182 639 outlet~ left;
#X obj 642 639 outlet~ right;
#X obj 474 127 s dry;
#X obj 23 514 *~;
#X obj 41 490 r dry;
#X obj 24 49 s~ dry;
#X obj 24 464 r~ dry;
#X obj 493 514 *~;
#X obj 511 490 r dry;
#X obj 494 464 r~ dry;
#X obj 114 147 s fx1;
#X obj 93 514 *~;
#X obj 563 514 *~;
#X obj 694 49 s~ fxL1;
#X obj 784 49 s~ fxR1;
#X obj 94 464 r~ fxL1;
#X obj 564 464 r~ fxR1;
#X obj 111 490 r fx1;
#X obj 581 490 r fx1;
#X obj 174 25 inlet cv;
#X obj 174 59 spigot;
#X obj 234 25 inlet cv;
#X obj 234 59 spigot;
#X obj 294 25 inlet cv;
#X obj 294 59 spigot;
#X obj 354 25 inlet cv;
#X obj 354 59 spigot;
#X obj 414 25 inlet cv;
#X obj 414 59 spigot;
#X obj 474 25 inlet cv;
#X obj 474 59 spigot;
#X msg 484 104 1;
#X obj 484 81 loadbang;
#X obj 874 25 inlet~ fxChorus;
#X obj 874 49 s~ fx2;
#X obj 174 147 s fx2;
#X obj 163 514 *~;
#X obj 633 514 *~;
#X obj 164 464 r~ fx2;
#X obj 181 490 r fx2;
#X obj 634 464 r~ fx2;
#X obj 651 490 r fx2;
#X obj 181 579 bob~, f 22;
#X obj 641 579 bob~, f 22;
#X obj 414 143 s res;
#X obj 354 143 s cutoff;
#X msg 424 104 0;
#X msg 364 104 1;
#X obj 664 233 r cutoff;
#X obj 724 233 r res;
#X obj 664 257 * 127;
#X obj 724 257 * 4;
#X obj 664 281 mtof;
#X connect 0 0 11 0;
#X connect 1 0 19 0;
#X connect 2 0 20 0;
#X connect 3 0 4 0;
#X connect 4 0 16 0;
#X connect 5 0 4 1;
#X connect 5 0 26 1;
#X connect 5 0 28 1;
#X connect 5 0 30 1;
#X connect 5 0 32 1;
#X connect 5 0 34 1;
#X connect 5 0 36 1;
#X connect 9 0 48 0;
#X connect 10 0 9 1;
#X connect 12 0 9 0;
#X connect 13 0 49 0;
#X connect 14 0 13 1;
#X connect 15 0 13 0;
#X connect 17 0 48 0;
#X connect 18 0 49 0;
#X connect 21 0 17 0;
#X connect 22 0 18 0;
#X connect 23 0 17 1;
#X connect 24 0 18 1;
#X connect 25 0 26 0;
#X connect 26 0 41 0;
#X connect 27 0 28 0;
#X connect 29 0 30 0;
#X connect 31 0 32 0;
#X connect 32 0 51 0;
#X connect 33 0 34 0;
#X connect 34 0 50 0;
#X connect 35 0 36 0;
#X connect 36 0 8 0;
#X connect 37 0 8 0;
#X connect 37 0 16 0;
#X connect 37 0 41 0;
#X connect 38 0 37 0;
#X connect 38 0 52 0;
#X connect 38 0 53 0;
#X connect 39 0 40 0;
#X connect 42 0 48 0;
#X connect 43 0 49 0;
#X connect 44 0 42 0;
#X connect 45 0 42 1;
#X connect 46 0 43 0;
#X connect 47 0 43 1;
#X connect 48 0 6 0;
#X connect 49 0 7 0;
#X connect 52 0 50 0;
#X connect 53 0 51 0;
#X connect 54 0 56 0;
#X connect 55 0 57 0;
#X connect 56 0 58 0;
#X connect 57 0 49 2;
#X connect 57 0 48 2;
#X connect 58 0 49 1;
#X connect 58 0 48 1;
