#N canvas 225 234 917 560 12;
#X obj 25 141 delwrite~ ping 2000;
#X obj 35 80 delwrite~ pong 2000;
#X obj 274 379 delread4~ ping;
#X obj 484 379 delread4~ pong;
#X obj 24 25 inlet~ audio;
#X obj 35 111 r~ pong;
#X obj 45 50 r~ ping;
#X obj 507 25 inlet cv;
#X obj 714 26 inlet tempo;
#X obj 714 50 expr 60000 / $f1;
#X text 803 25 Tempo to MS;
#X obj 274 496 s~ ping;
#X obj 483 496 s~ pong;
#X obj 507 69 spigot;
#X obj 617 25 inlet select;
#X msg 274 331 \$1 100;
#X obj 274 355 line~;
#X msg 484 331 \$1 100;
#X obj 484 355 line~;
#X obj 274 473 *~;
#X obj 338 437 * 0.99;
#X obj 483 473 *~;
#X obj 23 511 outlet~ left;
#X obj 117 511 outlet~ right;
#X obj 274 170 * 16;
#X obj 274 194 i;
#X obj 274 278 div;
#X obj 714 74 change;
#X obj 274 218 clip 1 16;
#X obj 274 306 clip 1 2000;
#X obj 484 170 * 16;
#X obj 484 194 i;
#X obj 484 278 div;
#X obj 484 218 clip 1 16;
#X obj 484 306 clip 1 2000;
#X obj 24 482 clip~ -1 1;
#X obj 116 482 clip~ -1 1;
#X obj 24 452 r~ ping;
#X obj 115 454 r~ pong;
#X obj 204 25 inlet cv;
#X obj 204 69 spigot;
#X obj 359 25 inlet cv;
#X obj 359 69 spigot;
#X obj 274 248 t b f;
#X obj 484 248 t b f;
#X obj 204 93 s pingDelayTime;
#X obj 274 143 r pingDelayTime;
#X obj 484 143 r pongDelayTime;
#X obj 359 93 s pongDelayTime;
#X obj 714 98 s pingPongTempo;
#X obj 161 248 r pingPongTempo;
#X obj 371 248 r pingPongTempo;
#X obj 507 93 s pingPongFeedback;
#X obj 338 412 r pingPongFeedback;
#X connect 2 0 19 0;
#X connect 3 0 21 0;
#X connect 4 0 0 0;
#X connect 4 0 1 0;
#X connect 5 0 0 0;
#X connect 6 0 1 0;
#X connect 7 0 13 0;
#X connect 8 0 9 0;
#X connect 9 0 27 0;
#X connect 13 0 52 0;
#X connect 14 0 13 1;
#X connect 14 0 42 1;
#X connect 14 0 40 1;
#X connect 15 0 16 0;
#X connect 16 0 2 0;
#X connect 17 0 18 0;
#X connect 18 0 3 0;
#X connect 19 0 11 0;
#X connect 20 0 19 1;
#X connect 20 0 21 1;
#X connect 21 0 12 0;
#X connect 24 0 25 0;
#X connect 25 0 28 0;
#X connect 26 0 29 0;
#X connect 27 0 49 0;
#X connect 28 0 43 0;
#X connect 29 0 15 0;
#X connect 30 0 31 0;
#X connect 31 0 33 0;
#X connect 32 0 34 0;
#X connect 33 0 44 0;
#X connect 34 0 17 0;
#X connect 35 0 22 0;
#X connect 36 0 23 0;
#X connect 37 0 35 0;
#X connect 38 0 36 0;
#X connect 39 0 40 0;
#X connect 40 0 45 0;
#X connect 41 0 42 0;
#X connect 42 0 48 0;
#X connect 43 0 26 0;
#X connect 43 1 26 1;
#X connect 44 0 32 0;
#X connect 44 1 32 1;
#X connect 46 0 24 0;
#X connect 47 0 30 0;
#X connect 50 0 26 0;
#X connect 51 0 32 0;
#X connect 53 0 20 0;
