#N canvas 887 687 608 214 12;
#X obj 6 27 pepperButton1, f 15;
#X obj 64 111 s rtB1;
#X obj 93 91 s ftB1;
#X obj 35 131 s tB1;
#X obj 6 151 s B1;
#X obj 146 27 pepperButton2;
#X obj 146 151 s B2;
#X obj 175 131 s tB2;
#X obj 204 111 s rtB2;
#X obj 234 91 s ftB2;
#X obj 286 27 pepperButton3;
#X obj 286 151 s B3;
#X obj 315 131 s tB3;
#X obj 344 111 s rtB3;
#X obj 374 91 s ftB3;
#X obj 426 27 pepperButton4;
#X obj 514 91 s ftB4;
#X obj 484 111 s rtB4;
#X obj 455 131 s tB4;
#X obj 426 151 s B4;
#X text 427 7 Input 7;
#X obj 108 61 s dtB1;
#X obj 234 61 s dtB2;
#X connect 0 0 4 0;
#X connect 0 1 3 0;
#X connect 0 2 1 0;
#X connect 0 3 2 0;
#X connect 0 4 21 0;
#X connect 5 0 6 0;
#X connect 5 1 7 0;
#X connect 5 2 8 0;
#X connect 5 3 9 0;
#X connect 5 4 22 0;
#X connect 10 0 11 0;
#X connect 10 1 12 0;
#X connect 10 2 13 0;
#X connect 10 3 14 0;
#X connect 15 0 19 0;
#X connect 15 1 18 0;
#X connect 15 2 17 0;
#X connect 15 3 16 0;
