#N canvas 208 208 1392 179 12;
#X obj 5 76 change;
#X obj 5 46 floatList;
#X obj 5 107 mapFunction 0 0.908 0 1;
#X obj 175 76 change;
#X obj 175 46 floatList;
#X obj 175 107 mapFunction 0 0.927 0 1;
#X obj 5 15 inlet;
#X obj 5 136 outlet;
#X obj 175 15 inlet;
#X obj 175 136 outlet;
#X obj 345 76 change;
#X obj 345 46 floatList;
#X obj 515 76 change;
#X obj 515 46 floatList;
#X obj 515 107 mapFunction 0 0.927 0 1;
#X obj 345 15 inlet;
#X obj 345 136 outlet;
#X obj 515 15 inlet;
#X obj 515 136 outlet;
#X obj 685 76 change;
#X obj 685 46 floatList;
#X obj 685 107 mapFunction 0 0.908 0 1;
#X obj 855 76 change;
#X obj 855 46 floatList;
#X obj 855 107 mapFunction 0 0.927 0 1;
#X obj 685 15 inlet;
#X obj 685 136 outlet;
#X obj 855 15 inlet;
#X obj 855 136 outlet;
#X obj 1025 76 change;
#X obj 1025 46 floatList;
#X obj 1025 107 mapFunction 0 0.908 0 1;
#X obj 1195 76 change;
#X obj 1195 46 floatList;
#X obj 1195 107 mapFunction 0 0.927 0 1;
#X obj 1025 15 inlet;
#X obj 1025 136 outlet;
#X obj 1195 15 inlet;
#X obj 1195 136 outlet;
#X obj 345 107 mapFunction 0 0.904 0 1;
#X connect 0 0 2 0;
#X connect 1 0 0 0;
#X connect 2 0 7 0;
#X connect 3 0 5 0;
#X connect 4 0 3 0;
#X connect 5 0 9 0;
#X connect 6 0 1 0;
#X connect 8 0 4 0;
#X connect 10 0 39 0;
#X connect 11 0 10 0;
#X connect 12 0 14 0;
#X connect 13 0 12 0;
#X connect 14 0 18 0;
#X connect 15 0 11 0;
#X connect 17 0 13 0;
#X connect 19 0 21 0;
#X connect 20 0 19 0;
#X connect 21 0 26 0;
#X connect 22 0 24 0;
#X connect 23 0 22 0;
#X connect 24 0 28 0;
#X connect 25 0 20 0;
#X connect 27 0 23 0;
#X connect 29 0 31 0;
#X connect 30 0 29 0;
#X connect 31 0 36 0;
#X connect 32 0 34 0;
#X connect 33 0 32 0;
#X connect 34 0 38 0;
#X connect 35 0 30 0;
#X connect 37 0 33 0;
#X connect 39 0 16 0;
