#N canvas 1116 492 450 498 12;
#X obj 14 13 inlet;
#X obj 14 87 i;
#X obj 64 87 + 1;
#X obj 14 111 % 4;
#X obj 14 135 sel 0 1 2 3, f 30;
#X obj 65 159 t b b;
#X obj 117 159 t b b;
#X obj 169 159 t b b b;
#X obj 14 219 timer;
#X msg 14 243 append \$1;
#X obj 14 299 list store;
#X obj 14 323 unpack f f f, f 30;
#X obj 14 48 bng 15 250 50 0 empty empty empty 17 7 0 10 #fcfcfc #000000
#000000;
#X obj 14 421 i;
#X obj 244 421 i;
#X obj 14 447 outlet BPM_PPQN4;
#X obj 244 445 outlet BPM_TICKS;
#X obj 244 397 expr 60000 / $f1;
#X obj 14 353 expr ($f1 + $f2 + $f3) / 3, f 30;
#X obj 360 258 loadbang;
#X obj 360 282 f \$1;
#X obj 270 258 inlet PPQN;
#X obj 14 397 expr 60000 / ($f1 * $f2);
#X text 192 398 PPQN;
#X connect 0 0 12 0;
#X connect 1 0 2 0;
#X connect 1 0 3 0;
#X connect 2 0 1 1;
#X connect 3 0 4 0;
#X connect 4 0 8 0;
#X connect 4 1 5 0;
#X connect 4 2 6 0;
#X connect 4 3 7 0;
#X connect 5 0 8 0;
#X connect 5 1 8 1;
#X connect 6 0 8 0;
#X connect 6 1 8 1;
#X connect 7 0 10 1;
#X connect 7 1 10 0;
#X connect 7 2 8 1;
#X connect 8 0 9 0;
#X connect 9 0 10 0;
#X connect 10 0 11 0;
#X connect 11 0 18 0;
#X connect 11 1 18 1;
#X connect 11 2 18 2;
#X connect 12 0 1 0;
#X connect 13 0 15 0;
#X connect 14 0 16 0;
#X connect 17 0 14 0;
#X connect 18 0 17 0;
#X connect 18 0 22 0;
#X connect 19 0 20 0;
#X connect 20 0 22 1;
#X connect 21 0 22 1;
#X connect 22 0 13 0;
