#N canvas 528 196 946 456 10;
#X obj 13 55 dac~ 27 28 29 30;
#X obj 16 221 osc~ 20;
#X obj 16 242 *~ 0.5;
#X obj 16 263 +~ 0.5;
#X text 17 200 Simple LFO;
#X text 167 55 Oscilloscope;
#X obj 17 327 loadbang;
#X obj 17 390 dac~ 9;
#X obj 16 284 dac~ 10;
#X obj 69 284 dac~ 30;
#X obj 65 390 dac~ 29;
#X obj 17 369 *~ 0.2;
#X obj 17 348 4;
#X text 15 309 4V at output;
#X text 72 369 CV outputs up to 5V;
#X obj 13 12 adc~ 3 4 5 6 7 8 9 10;
#X obj 13 32 dac~ 3 4 5 6 7 8 9 10;
#X text 166 11 CV inputs 0 1 2 3 4 5 6 7;
#X text 166 29 CV outputs 0 1 2 3 4 5 6 7;
#X text 336 11 16bit 0-10V;
#X text 336 29 16bit 0-5V;
#X obj 502 35 loadbang;
#X obj 502 98 s bela_setDigital;
#X msg 502 55 in 26 \, in 25 \, in 24 \, in 23 \, out 17 \, out 18
\, out 20 \, out 13 \, out 14 \, out 11 \, out 12 \, out 15 \, out
16 \, out 19, f 39;
#X text 505 11 Initialize digital I/O;
#X obj 177 220 r bela_digitalIn23;
#X text 11 89 17 18 20 13 14 11 12 15 16 19;
#X text 11 79 LED output pins are as follows from left to right:;
#X text 11 105 Buttons input pins:;
#X text 11 132 Trigger input pins when configured on the back (shared
with the buttons):, f 76;
#X text 11 116 26 25 24 23;
#X text 12 144 26 25 24 23;
#X obj 177 241 sel 0 1;
#X obj 196 261 print true;
#X obj 177 282 print false;
#X text 179 199 Read digital input;
#X obj 427 216 pepperReadInput 4;
#X obj 427 241 sel 0 1;
#X obj 446 261 print true;
#X obj 427 282 print false;
#X connect 1 0 2 0;
#X connect 2 0 3 0;
#X connect 3 0 8 0;
#X connect 3 0 9 0;
#X connect 6 0 12 0;
#X connect 11 0 7 0;
#X connect 11 0 10 0;
#X connect 12 0 11 0;
#X connect 21 0 23 0;
#X connect 23 0 22 0;
#X connect 32 0 34 0;
#X connect 32 1 33 0;
#X connect 36 0 37 0;
#X connect 37 0 39 0;
#X connect 37 1 38 0;
