#N canvas 478 221 862 456 10;
#X obj 55 292 *~ 0.5;
#X obj 55 313 +~ 0.5;
#X text 100 270 Simple LFO;
#X obj 55 334 dac~ 10;
#X text 15 11 Initialize digital I/O;
#X obj 12 25 pepperInitializeDigitalGpio;
#X obj 97 79 pepperWriteLed 1;
#X obj 206 79 pepperWriteLed 2 1;
#X obj 55 50 pepperGetBpmFromInput 4;
#X obj 55 271 osc~;
#X obj 573 43 s cv7midiValue;
#X obj 453 43 s cv7rawValue;
#X obj 453 22 pepperCvInputConfig 7 0.00032 0.93;
#X obj 453 73 r cv7rawValue;
#X obj 208 213 r cv7midiValue;
#X obj 453 94 print Raw;
#X obj 55 245 bpmToHzAndDivisionSelector;
#X obj 172 303 phasor~;
#X connect 0 0 1 0;
#X connect 8 0 16 0;
#X connect 8 1 6 1;
#X connect 9 0 0 0;
#X connect 12 0 11 0;
#X connect 12 1 10 0;
#X connect 14 0 16 1;
#X connect 16 0 17 0;
#X connect 17 0 3 0;
