#N canvas 763 63 1010 774 12;
#X obj 211 123 kick909gui;
#X obj 5 3 dspOnOff;
#X obj 32 414 catch~;
#X obj 211 338 throw~ kick;
#X obj 211 359 catch~ kick;
#X obj 212 608 throw~;
#X obj 32 445 dac~;
#X obj 212 385 simpleDelayGui;
#X obj 64 123 clockBpmGui;
#X connect 0 0 3 0;
#X connect 2 0 6 0;
#X connect 2 0 6 1;
#X connect 4 0 7 0;
#X connect 7 0 5 0;
#X connect 8 2 0 0;
