#N canvas 839 366 702 483 12;
#X obj 211 162 kick909;
#X obj 210 222 dac~;
#X obj 140 28 tgl 15 0 empty empty empty 17 7 0 10 #fcfcfc #000000
#000000 0 1;
#X obj 140 77 clockBpm 120, f 41;
#X connect 0 0 1 0;
#X connect 0 0 1 1;
#X connect 2 0 3 0;
#X connect 3 2 0 0;
