#N canvas 562 238 1108 734 12;
#X obj 13 75 dac~ 27 28 29 30;
#X obj 16 311 osc~ 20;
#X obj 16 342 *~ 0.5;
#X obj 16 373 +~ 0.5;
#X text 17 290 Simple LFO;
#X text 167 75 Oscilloscope;
#X obj 17 447 loadbang;
#X obj 17 540 dac~ 9;
#X obj 16 404 dac~ 10;
#X obj 79 404 dac~ 30;
#X obj 75 540 dac~ 29;
#X obj 17 509 *~ 0.2;
#X obj 17 478 4;
#X text 15 429 4V at output;
#X text 72 509 CV outputs up to 5V;
#X obj 13 12 adc~ 3 4 5 6 7 8 9 10;
#X obj 13 42 dac~ 3 4 5 6 7 8 9 10;
#X text 166 11 CV inputs 0 1 2 3 4 5 6 7;
#X text 166 39 CV outputs 0 1 2 3 4 5 6 7;
#X text 356 11 16bit 0-10V;
#X text 356 39 16bit 0-5V;
#X text 158 231 Initialize digital I/O;
#X obj 177 310 r bela_digitalIn23;
#X text 11 119 17 18 20 13 14 11 12 15 16 19;
#X text 11 99 LED output pins are as follows from left to right:;
#X text 11 145 Buttons input pins:;
#X text 11 192 Trigger input pins when configured on the back (shared
with the buttons):, f 76;
#X text 11 166 26 25 24 23;
#X text 12 214 26 25 24 23;
#X obj 177 341 sel 0 1;
#X text 179 289 Read digital input;
#X obj 377 296 pepperGetBpmFromInput 4;
#X obj 377 321 print \$1;
#X obj 155 255 pepperInitializeDigitalGpio;
#X obj 578 259 pepperReadDigital 4;
#X obj 599 284 pepperWriteLed 1;
#X obj 600 313 pepperWriteLed 2 1;
#X obj 200 371 print digitalIn23_true;
#X obj 177 392 print digitalIn23_false;
#X connect 1 0 2 0;
#X connect 2 0 3 0;
#X connect 3 0 8 0;
#X connect 3 0 9 0;
#X connect 6 0 12 0;
#X connect 11 0 7 0;
#X connect 11 0 10 0;
#X connect 12 0 11 0;
#X connect 22 0 29 0;
#X connect 29 0 38 0;
#X connect 29 1 37 0;
#X connect 31 0 32 0;
#X connect 34 3 35 1;
