#N canvas 16 389 876 606 12;
#X obj 432 444 *~;
#X floatatom 450 419 5 0 1 0 - - - 0;
#X obj 449 307 *~;
#X text 489 420 delay volumen;
#X floatatom 467 282 5 0 0.9 0 - - - 0;
#X obj 44 58 inlet~;
#X text 43 36 audio input;
#X obj 110 457 outlet~;
#X text 97 480 audio output;
#X obj 43 301 *~;
#X floatatom 61 278 5 0 2 0 - - - 0;
#X obj 266 57 inlet;
#X obj 316 57 loadbang;
#X obj 44 82 s~ \$0-audioInput;
#X obj 44 113 r~ \$0-audioInput;
#X obj 43 204 r~ \$0-audioInput;
#X obj 43 351 s~ \$0-audioOutput;
#X obj 44 414 r~ \$0-audioOutput;
#X obj 45 170 delwrite~ \$0-delBuffer 2000;
#X obj 432 216 delread~ \$0-delBuffer 0;
#X obj 266 114 s \$0-dryLevel;
#X obj 61 231 r \$0-dryLevel;
#X obj 57 140 receive~ \$0-delayFeedback;
#X obj 449 331 send~ \$0-delayFeedback;
#X text 108 277 dry signal amount;
#X obj 384 57 inlet;
#X obj 434 57 loadbang;
#X obj 384 114 s \$0-delayTime;
#X obj 502 57 inlet;
#X obj 552 57 loadbang;
#X text 507 34 delay amount;
#X obj 502 114 s \$0-delayAmount;
#X text 265 34 dry amount;
#X obj 624 57 inlet;
#X obj 674 57 loadbang;
#X text 623 34 feedback amount;
#X obj 624 114 s \$0-feedbackAmount;
#X floatatom 432 191 5 0.05 2000 0 - - - 0;
#X text 482 193 delay time. From 0.05 to 2000 sec;
#X obj 432 162 r \$0-delayTime;
#X obj 432 468 s~ \$0-delayOutput;
#X obj 177 415 r~ \$0-delayOutput;
#X obj 467 258 r \$0-feedbackAmount;
#X text 507 284 feedback amount. From 0 to 0.9;
#X obj 450 389 r \$0-delayAmount;
#X obj 316 78 f \$1;
#X obj 434 78 f \$2;
#X obj 552 78 f \$3;
#X obj 674 78 f \$4;
#X text 384 34 delay time in ms;
#X obj 44 325 clip~ 0 0.9;
#X obj 61 255 * 10;
#X connect 0 0 40 0;
#X connect 1 0 0 1;
#X connect 2 0 23 0;
#X connect 4 0 2 1;
#X connect 5 0 13 0;
#X connect 9 0 50 0;
#X connect 10 0 9 1;
#X connect 11 0 20 0;
#X connect 12 0 45 0;
#X connect 14 0 18 0;
#X connect 15 0 9 0;
#X connect 17 0 7 0;
#X connect 19 0 0 0;
#X connect 19 0 2 0;
#X connect 21 0 51 0;
#X connect 22 0 18 0;
#X connect 25 0 27 0;
#X connect 26 0 46 0;
#X connect 28 0 31 0;
#X connect 29 0 47 0;
#X connect 33 0 36 0;
#X connect 34 0 48 0;
#X connect 37 0 19 0;
#X connect 39 0 37 0;
#X connect 41 0 7 0;
#X connect 42 0 4 0;
#X connect 44 0 1 0;
#X connect 45 0 20 0;
#X connect 46 0 27 0;
#X connect 47 0 31 0;
#X connect 48 0 36 0;
#X connect 50 0 16 0;
#X connect 51 0 10 0;
