#N canvas 736 368 876 606 12;
#X obj 422 442 *~;
#X floatatom 440 417 5 0 1 0 - - - 0;
#X obj 439 305 *~;
#X text 479 418 delay volumen;
#X obj 34 36 inlet~;
#X text 33 14 audio input;
#X obj 34 60 s~ \$0-audioInput;
#X obj 34 91 r~ \$0-audioInput;
#X obj 35 148 delwrite~ \$0-delBuffer 2000;
#X obj 422 214 delread~ \$0-delBuffer 0;
#X obj 47 118 receive~ \$0-delayFeedback;
#X obj 439 329 send~ \$0-delayFeedback;
#X obj 246 35 inlet;
#X obj 296 35 loadbang;
#X text 251 12 delay amount;
#X obj 246 92 s \$0-delayAmount;
#X text 613 12 feedback amount;
#X text 472 191 delay time. From 0.05 to 2000 sec;
#X obj 422 466 s~ \$0-delayOutput;
#X obj 34 436 r~ \$0-delayOutput;
#X text 497 282 feedback amount. From 0 to 0.9;
#X obj 440 387 r \$0-delayAmount;
#X text 374 12 delay time in ms;
#X obj 33 499 outlet~;
#X text 20 522 audio output;
#X obj 422 140 r~ \$0-delayTime;
#X obj 374 92 s~ \$0-delayTime;
#X obj 374 35 inlet~;
#X obj 457 256 r~ \$0-feedbackAmount;
#X obj 614 92 s~ \$0-feedbackAmount;
#X obj 422 163 *~ 2000;
#X obj 614 35 inlet~;
#X obj 296 56 f \$1;
#X connect 0 0 18 0;
#X connect 1 0 0 1;
#X connect 2 0 11 0;
#X connect 4 0 6 0;
#X connect 7 0 8 0;
#X connect 9 0 0 0;
#X connect 9 0 2 0;
#X connect 10 0 8 0;
#X connect 12 0 15 0;
#X connect 13 0 32 0;
#X connect 19 0 23 0;
#X connect 21 0 1 0;
#X connect 25 0 30 0;
#X connect 27 0 26 0;
#X connect 28 0 2 1;
#X connect 30 0 9 0;
#X connect 31 0 29 0;
#X connect 32 0 15 0;
