#N canvas 16 389 876 606 12;
#X obj 44 58 inlet~;
#X text 43 36 audio input;
#X obj 43 147 *~;
#X floatatom 61 124 5 0 2 0 - - - 0;
#X obj 266 57 inlet;
#X obj 316 57 loadbang;
#X obj 266 114 s \$0-dryLevel;
#X obj 61 96 r \$0-dryLevel;
#X text 108 123 dry signal amount;
#X text 265 34 dry amount;
#X obj 316 78 f \$1;
#X obj 42 209 outlet~;
#X text 29 232 audio output;
#X connect 0 0 2 0;
#X connect 2 0 11 0;
#X connect 3 0 2 1;
#X connect 4 0 6 0;
#X connect 5 0 10 0;
#X connect 7 0 3 0;
#X connect 10 0 6 0;
