#N canvas 906 390 869 602 12;
#X obj 27 31 inlet~;
#X text 26 9 audio input;
#X text 80 414 audio output;
#X obj 27 55 s~ \$0-audioInput;
#X obj 27 348 r~ \$0-audioOutput;
#X obj 303 167 rev2~, f 25;
#X obj 27 241 *~;
#X floatatom 45 213 5 0 1 0 - - - 0;
#X obj 27 144 r~ \$0-audioInput;
#X obj 27 265 s~ \$0-audioOutput;
#X obj 45 181 r \$0-dryLevel;
#X text 92 212 dry signal amount;
#X obj 175 31 inlet;
#X obj 225 31 loadbang;
#X obj 175 88 s \$0-dryLevel;
#X text 174 8 dry amount;
#X obj 225 52 f \$1;
#X obj 303 88 r~ \$0-audioInput;
#X obj 93 391 outlet~;
#X text 346 415 audio output;
#X obj 293 349 r~ \$0-audioOutput;
#X obj 359 392 outlet~;
#X obj 303 227 s~ \$0-revOutput1;
#X obj 163 347 r~ \$0-revOutput1;
#X obj 429 348 r~ \$0-revOutput2;
#X obj 360 201 s~ \$0-revOutput2;
#X connect 0 0 3 0;
#X connect 4 0 18 0;
#X connect 5 0 22 0;
#X connect 5 1 25 0;
#X connect 6 0 9 0;
#X connect 7 0 6 1;
#X connect 8 0 6 0;
#X connect 10 0 7 0;
#X connect 12 0 14 0;
#X connect 13 0 16 0;
#X connect 16 0 14 0;
#X connect 17 0 5 0;
#X connect 20 0 21 0;
#X connect 23 0 18 0;
#X connect 24 0 21 0;
