#N canvas 954 376 869 602 12;
#X obj 27 31 inlet~;
#X text 26 9 audio input;
#X text 34 459 audio output;
#X obj 27 55 s~ \$0-audioInput;
#X obj 585 135 r~ \$0-audioInput;
#X obj 47 436 outlet~;
#X text 156 459 audio output;
#X obj 169 436 outlet~;
#X obj 585 271 rev1~, f 25;
#X obj 170 380 r~ \$0-rev1Output;
#X obj 48 380 r~ \$0-rev1Output;
#X obj 585 382 s~ \$0-rev1Output;
#X obj 303 31 inlet;
#X obj 353 31 loadbang;
#X obj 353 52 f \$2;
#X text 303 8 reverb decay;
#X obj 303 88 s \$0-revDecay;
#X obj 671 165 r \$0-revDecay;
#X obj 173 31 inlet;
#X obj 223 31 loadbang;
#X text 178 8 reverb amount;
#X obj 173 88 s \$0-revAmount;
#X obj 585 354 *~;
#X floatatom 603 329 5 0 1 0 - - - 0;
#X obj 603 299 r \$0-revAmount;
#X text 642 330 reverb amount;
#X floatatom 671 193 5 0 1 0 - - - 0;
#X text 710 194 reverb decay;
#X obj 223 52 f \$1;
#X connect 0 0 3 0;
#X connect 4 0 8 0;
#X connect 8 0 22 0;
#X connect 9 0 7 0;
#X connect 10 0 5 0;
#X connect 12 0 16 0;
#X connect 13 0 14 0;
#X connect 14 0 16 0;
#X connect 17 0 26 0;
#X connect 18 0 21 0;
#X connect 19 0 28 0;
#X connect 22 0 11 0;
#X connect 23 0 22 1;
#X connect 24 0 23 0;
#X connect 26 0 8 1;
#X connect 28 0 21 0;
