#N canvas 1002 412 873 602 12;
#X obj 27 31 inlet~;
#X text 26 9 audio input;
#X text 17 528 audio output;
#X obj 27 55 s~ \$0-audioInput;
#X obj 30 117 r~ \$0-audioInput;
#X obj 30 505 outlet~;
#X text 149 529 audio output;
#X obj 162 506 outlet~;
#X obj 303 31 inlet;
#X obj 353 31 loadbang;
#X obj 177 31 inlet;
#X obj 227 31 loadbang;
#X text 182 8 reverb amount;
#X obj 177 88 s \$0-revAmount;
#X obj 30 382 *~;
#X floatatom 48 357 5 0 1 0 - - - 0;
#X obj 48 327 r \$0-revAmount;
#X floatatom 306 195 5 0 1 0 - - - 0;
#X obj 30 299 rev2~ 100 90 3000 20, f 53;
#X obj 29 452 r~ \$0-revOutput1;
#X obj 30 410 s~ \$0-revOutput1;
#X obj 161 453 r~ \$0-revOutput2;
#X obj 153 381 *~;
#X obj 153 409 s~ \$0-revOutput2;
#X floatatom 171 357 5 0 1 0 - - - 0;
#X obj 171 327 r \$0-revAmount;
#X text 214 358 reverb amount;
#X obj 227 52 f \$1;
#X obj 353 52 f \$2;
#X text 303 8 crossover frequency in Hz. (3000 default);
#X obj 303 88 s \$0-revFreq;
#X text 345 196 reverb frequency;
#X obj 306 167 r \$0-revFreq;
#X obj 603 31 inlet;
#X obj 653 31 loadbang;
#X text 603 8 high frequency damping \, 0-100;
#X obj 653 52 f \$3;
#X obj 603 88 s \$0-revDamping;
#X floatatom 398 263 5 0 1 0 - - - 0;
#X obj 399 236 r \$0-revDamping;
#X text 437 264 reverb damping;
#X connect 0 0 3 0;
#X connect 4 0 18 0;
#X connect 8 0 30 0;
#X connect 9 0 28 0;
#X connect 10 0 13 0;
#X connect 11 0 27 0;
#X connect 14 0 20 0;
#X connect 15 0 14 1;
#X connect 16 0 15 0;
#X connect 17 0 18 3;
#X connect 18 0 14 0;
#X connect 18 1 22 0;
#X connect 19 0 5 0;
#X connect 21 0 7 0;
#X connect 22 0 23 0;
#X connect 24 0 22 1;
#X connect 25 0 24 0;
#X connect 27 0 13 0;
#X connect 28 0 30 0;
#X connect 32 0 17 0;
#X connect 33 0 37 0;
#X connect 34 0 36 0;
#X connect 36 0 37 0;
#X connect 38 0 18 4;
#X connect 39 0 38 0;
