#N canvas 208 208 450 300 12;
#X obj 12 19 inlet;
#X floatatom 12 73 5 0 0 0 - - - 0;
#X obj 12 96 * 100000;
#X obj 12 117 / 100;
#X obj 12 138 int;
#X obj 12 159 outlet;
#X obj 62 19 loadbang;
#X obj 62 40 f \$1;
#X connect 0 0 1 0;
#X connect 1 0 2 0;
#X connect 2 0 3 0;
#X connect 3 0 4 0;
#X connect 4 0 5 0;
#X connect 6 0 7 0;
#X connect 7 0 1 0;
