#N canvas 581 467 962 535 12;
#X obj 6 18 inlet;
#X obj 50 18 loadbang;
#X obj 50 42 f \$1;
#X msg 6 233 1;
#X msg 36 233 0;
#X msg 83 232 1;
#X msg 113 232 0;
#X msg 178 231 1;
#X msg 207 231 0;
#X msg 272 230 1;
#X msg 301 230 0;
#X obj 30 477 tgl 18 0 empty empty empty 17 7 0 10 #fcfcfc #000000
#000000 0 1;
#X obj 109 477 tgl 18 0 empty empty empty 17 7 0 10 #fcfcfc #000000
#000000 0 1;
#X obj 204 477 tgl 18 0 empty empty empty 17 7 0 10 #fcfcfc #000000
#000000 0 1;
#X obj 295 477 tgl 18 0 empty empty empty 17 7 0 10 #fcfcfc #000000
#000000 0 1;
#X obj 30 500 outlet;
#X obj 109 500 outlet;
#X obj 204 500 outlet;
#X obj 295 500 outlet;
#X msg 365 230 1;
#X msg 395 230 0;
#X msg 463 229 1;
#X msg 493 229 0;
#X msg 553 228 1;
#X msg 582 228 0;
#X msg 646 227 1;
#X msg 675 227 0;
#X obj 389 477 tgl 18 0 empty empty empty 17 7 0 10 #fcfcfc #000000
#000000 0 1;
#X obj 489 477 tgl 18 0 empty empty empty 17 7 0 10 #fcfcfc #000000
#000000 0 1;
#X obj 579 477 tgl 18 0 empty empty empty 17 7 0 10 #fcfcfc #000000
#000000 0 1;
#X obj 669 477 tgl 18 0 empty empty empty 17 7 0 10 #fcfcfc #000000
#000000 0 1;
#X obj 389 500 outlet;
#X obj 489 500 outlet;
#X obj 579 500 outlet;
#X obj 669 500 outlet;
#X msg 743 228 1;
#X msg 772 228 0;
#X msg 836 227 1;
#X msg 865 227 0;
#X obj 769 477 tgl 18 0 empty empty empty 17 7 0 10 #fcfcfc #000000
#000000 0 1;
#X obj 859 477 tgl 18 0 empty empty empty 17 7 0 10 #fcfcfc #000000
#000000 0 1;
#X obj 769 500 outlet;
#X obj 859 500 outlet;
#X obj 6 137 sel 0 1 2 3 4 5 6 7 8 9, f 134;
#X obj 6 85 % 10;
#X connect 0 0 44 0;
#X connect 1 0 2 0;
#X connect 2 0 44 0;
#X connect 3 0 11 0;
#X connect 4 0 12 0;
#X connect 4 0 13 0;
#X connect 4 0 14 0;
#X connect 4 0 27 0;
#X connect 4 0 28 0;
#X connect 4 0 29 0;
#X connect 4 0 30 0;
#X connect 4 0 39 0;
#X connect 4 0 40 0;
#X connect 5 0 12 0;
#X connect 6 0 11 0;
#X connect 6 0 13 0;
#X connect 6 0 14 0;
#X connect 6 0 27 0;
#X connect 6 0 28 0;
#X connect 6 0 29 0;
#X connect 6 0 30 0;
#X connect 6 0 39 0;
#X connect 6 0 40 0;
#X connect 7 0 13 0;
#X connect 8 0 12 0;
#X connect 8 0 14 0;
#X connect 8 0 11 0;
#X connect 8 0 27 0;
#X connect 8 0 28 0;
#X connect 8 0 29 0;
#X connect 8 0 30 0;
#X connect 8 0 39 0;
#X connect 8 0 40 0;
#X connect 9 0 14 0;
#X connect 10 0 13 0;
#X connect 10 0 11 0;
#X connect 10 0 12 0;
#X connect 10 0 27 0;
#X connect 10 0 28 0;
#X connect 10 0 29 0;
#X connect 10 0 30 0;
#X connect 10 0 39 0;
#X connect 10 0 40 0;
#X connect 11 0 15 0;
#X connect 12 0 16 0;
#X connect 13 0 17 0;
#X connect 14 0 18 0;
#X connect 19 0 27 0;
#X connect 20 0 28 0;
#X connect 20 0 29 0;
#X connect 20 0 30 0;
#X connect 20 0 11 0;
#X connect 20 0 12 0;
#X connect 20 0 13 0;
#X connect 20 0 14 0;
#X connect 20 0 39 0;
#X connect 20 0 40 0;
#X connect 21 0 28 0;
#X connect 22 0 27 0;
#X connect 22 0 29 0;
#X connect 22 0 30 0;
#X connect 22 0 14 0;
#X connect 22 0 13 0;
#X connect 22 0 12 0;
#X connect 22 0 11 0;
#X connect 22 0 39 0;
#X connect 22 0 40 0;
#X connect 23 0 29 0;
#X connect 24 0 28 0;
#X connect 24 0 30 0;
#X connect 24 0 27 0;
#X connect 24 0 14 0;
#X connect 24 0 13 0;
#X connect 24 0 12 0;
#X connect 24 0 11 0;
#X connect 24 0 39 0;
#X connect 24 0 40 0;
#X connect 25 0 30 0;
#X connect 26 0 29 0;
#X connect 26 0 39 0;
#X connect 26 0 40 0;
#X connect 26 0 28 0;
#X connect 26 0 27 0;
#X connect 26 0 14 0;
#X connect 26 0 13 0;
#X connect 26 0 12 0;
#X connect 26 0 11 0;
#X connect 27 0 31 0;
#X connect 28 0 32 0;
#X connect 29 0 33 0;
#X connect 30 0 34 0;
#X connect 35 0 39 0;
#X connect 36 0 40 0;
#X connect 36 0 30 0;
#X connect 36 0 29 0;
#X connect 36 0 28 0;
#X connect 36 0 27 0;
#X connect 36 0 14 0;
#X connect 36 0 13 0;
#X connect 36 0 12 0;
#X connect 36 0 11 0;
#X connect 37 0 40 0;
#X connect 38 0 39 0;
#X connect 38 0 30 0;
#X connect 38 0 29 0;
#X connect 38 0 28 0;
#X connect 38 0 27 0;
#X connect 38 0 14 0;
#X connect 38 0 13 0;
#X connect 38 0 12 0;
#X connect 38 0 11 0;
#X connect 39 0 41 0;
#X connect 40 0 42 0;
#X connect 43 0 3 0;
#X connect 43 0 4 0;
#X connect 43 1 5 0;
#X connect 43 1 6 0;
#X connect 43 2 7 0;
#X connect 43 2 8 0;
#X connect 43 3 9 0;
#X connect 43 3 10 0;
#X connect 43 4 19 0;
#X connect 43 4 20 0;
#X connect 43 5 21 0;
#X connect 43 5 22 0;
#X connect 43 6 23 0;
#X connect 43 6 24 0;
#X connect 43 7 25 0;
#X connect 43 7 26 0;
#X connect 43 8 35 0;
#X connect 43 8 36 0;
#X connect 43 9 37 0;
#X connect 43 9 38 0;
#X connect 43 10 38 0;
#X connect 43 10 36 0;
#X connect 43 10 26 0;
#X connect 43 10 24 0;
#X connect 43 10 22 0;
#X connect 43 10 20 0;
#X connect 43 10 10 0;
#X connect 43 10 8 0;
#X connect 43 10 6 0;
#X connect 43 10 4 0;
#X connect 44 0 43 0;
