#N canvas 851 435 220 155 12;
#X obj 13 12 inlet;
#X obj 13 65 mapFunction;
#X floatatom 13 89 5 0 0 0 - - - 0;
#X obj 13 112 outlet;
#X obj 60 12 loadbang;
#X msg 60 36 0;
#X msg 93 36 127;
#X msg 126 36 1;
#X floatatom 13 36 5 0 0 0 - - - 0;
#X connect 0 0 8 0;
#X connect 1 0 2 0;
#X connect 2 0 3 0;
#X connect 4 0 5 0;
#X connect 4 0 6 0;
#X connect 4 0 7 0;
#X connect 5 0 1 1;
#X connect 5 0 1 3;
#X connect 6 0 1 2;
#X connect 7 0 1 4;
#X connect 8 0 1 0;
