#N canvas 851 435 408 286 12;
#X obj 13 12 inlet;
#X floatatom 13 89 5 0 0 0 - - - 0;
#X obj 13 112 outlet;
#X floatatom 13 36 5 0 0 0 - - - 0;
#X obj 13 65 mapFunction 0 127 0 1;
#X connect 0 0 3 0;
#X connect 1 0 2 0;
#X connect 3 0 4 0;
#X connect 4 0 1 0;
