#N canvas 918 195 815 544 12;
#X obj 66 212 select 0 2 3 5 7 9 10, f 23;
#X obj 66 182 % 12;
#X msg 66 253 0;
#X msg 201 253 -1;
#X obj 36 283 +;
#X obj 36 307 outlet;
#X obj 36 49 inlet;
#X text 28 12 Quantize midi notes;
#X obj 94 49 inlet;
#X obj 226 49 inlet;
#X floatatom 94 125 5 0 0 0 - - - 0;
#X floatatom 226 125 5 0 0 0 - - - 0;
#X obj 141 49 loadbang;
#X obj 141 73 f \$1;
#X obj 271 49 loadbang;
#X obj 271 73 f \$2;
#X obj 36 150 mapFunctionToMidi;
#X text 388 4 C0 C#1 D2 D#3 E4 F5 F#6 G7 G#8 A9 A#10 B11, f 52;
#X text 389 16 G minor: G A A# C D D# F, f 45;
#X connect 0 0 2 0;
#X connect 0 1 2 0;
#X connect 0 2 2 0;
#X connect 0 3 2 0;
#X connect 0 4 2 0;
#X connect 0 5 2 0;
#X connect 0 6 2 0;
#X connect 0 7 3 0;
#X connect 1 0 0 0;
#X connect 2 0 4 1;
#X connect 3 0 4 1;
#X connect 4 0 5 0;
#X connect 6 0 16 0;
#X connect 8 0 10 0;
#X connect 9 0 11 0;
#X connect 10 0 16 1;
#X connect 11 0 16 2;
#X connect 12 0 13 0;
#X connect 13 0 10 0;
#X connect 14 0 15 0;
#X connect 15 0 11 0;
#X connect 16 0 1 0;
#X connect 16 0 4 0;
