#N canvas 665 410 450 300 12;
#X obj 75 47 sel 0 1 2 3, f 40;
#X msg 45 121 1;
#X msg 83 120 0;
#X msg 135 121 1;
#X msg 173 120 0;
#X msg 215 120 1;
#X msg 253 119 0;
#X msg 298 119 1;
#X msg 336 118 0;
#X obj 69 227 tgl 18 0 empty empty empty 17 7 0 10 #fcfcfc #000000
#000000 0 1;
#X obj 139 227 tgl 18 0 empty empty empty 17 7 0 10 #fcfcfc #000000
#000000 0 1;
#X obj 209 227 tgl 18 0 empty empty empty 17 7 0 10 #fcfcfc #000000
#000000 0 1;
#X obj 279 227 tgl 18 0 empty empty empty 17 7 0 10 #fcfcfc #000000
#000000 0 1;
#X obj 69 250 outlet;
#X obj 139 250 outlet;
#X obj 209 250 outlet;
#X obj 279 250 outlet;
#X obj 75 14 inlet;
#X connect 0 0 1 0;
#X connect 0 0 2 0;
#X connect 0 1 3 0;
#X connect 0 1 4 0;
#X connect 0 2 5 0;
#X connect 0 2 6 0;
#X connect 0 3 7 0;
#X connect 0 3 8 0;
#X connect 0 4 8 0;
#X connect 0 4 6 0;
#X connect 0 4 4 0;
#X connect 0 4 2 0;
#X connect 1 0 9 0;
#X connect 2 0 10 0;
#X connect 2 0 11 0;
#X connect 2 0 12 0;
#X connect 3 0 10 0;
#X connect 4 0 9 0;
#X connect 4 0 11 0;
#X connect 4 0 12 0;
#X connect 5 0 11 0;
#X connect 6 0 10 0;
#X connect 6 0 12 0;
#X connect 6 0 9 0;
#X connect 7 0 12 0;
#X connect 8 0 11 0;
#X connect 9 0 13 0;
#X connect 10 0 14 0;
#X connect 11 0 15 0;
#X connect 12 0 16 0;
#X connect 17 0 0 0;
