#N canvas 52 52 450 300 12;
#X msg 19 88 1;
#X msg 95 88 0;
#X obj 19 20 inlet set;
#X obj 95 20 inlet reset;
#X obj 19 112 tgl 15 0 empty empty empty 17 7 0 10 #fcfcfc #000000
#000000 0 1;
#X obj 19 132 outlet;
#X obj 19 44 bang;
#X obj 95 44 bang;
#X connect 0 0 4 0;
#X connect 1 0 4 0;
#X connect 2 0 6 0;
#X connect 3 0 7 0;
#X connect 4 0 5 0;
#X connect 6 0 0 0;
#X connect 7 0 1 0;
