#N canvas 573 233 876 467 12;
#X obj 196 38 inlet;
#X obj 280 38 loadbang;
#X obj 280 62 f \$1;
#X text 195 10 PARAM 1: BPM;
#X obj 26 176 / 128;
#X obj 26 280 outlet;
#X obj 76 280 outlet;
#X obj 126 280 outlet;
#X obj 176 280 outlet;
#X obj 76 176 / 64;
#X obj 126 176 / 32;
#X obj 176 176 / 24;
#X obj 226 280 outlet;
#X obj 276 280 outlet;
#X obj 226 176 / 16;
#X obj 276 176 / 8;
#X obj 26 200 * 0.02;
#X obj 76 200 * 0.02;
#X obj 126 200 * 0.02;
#X obj 176 200 * 0.02;
#X obj 226 200 * 0.02;
#X obj 276 200 * 0.02;
#X obj 326 280 outlet;
#X obj 326 200 * 0.02;
#X obj 376 280 outlet;
#X obj 376 200 * 0.02;
#X obj 326 176 / 4;
#X obj 376 176 / 2;
#X obj 436 280 outlet;
#X obj 486 280 outlet;
#X obj 536 280 outlet;
#X obj 586 280 outlet;
#X obj 636 280 outlet;
#X obj 686 280 outlet;
#X obj 436 200 * 0.02;
#X obj 486 200 * 0.02;
#X obj 536 200 * 0.02;
#X obj 586 200 * 0.02;
#X obj 636 200 * 0.02;
#X obj 686 200 * 0.02;
#X obj 736 280 outlet;
#X obj 736 200 * 0.02;
#X obj 786 280 outlet;
#X obj 786 200 * 0.02;
#X obj 436 176 * 2;
#X obj 486 176 * 4;
#X obj 536 176 * 8;
#X obj 586 176 * 16;
#X obj 636 176 * 24;
#X obj 686 176 * 32;
#X obj 736 176 * 64;
#X obj 786 176 * 128;
#X connect 0 0 4 0;
#X connect 0 0 15 0;
#X connect 0 0 14 0;
#X connect 0 0 11 0;
#X connect 0 0 10 0;
#X connect 0 0 9 0;
#X connect 0 0 26 0;
#X connect 0 0 27 0;
#X connect 0 0 44 0;
#X connect 0 0 45 0;
#X connect 0 0 46 0;
#X connect 0 0 47 0;
#X connect 0 0 48 0;
#X connect 0 0 49 0;
#X connect 0 0 50 0;
#X connect 0 0 51 0;
#X connect 1 0 2 0;
#X connect 2 0 4 0;
#X connect 2 0 15 0;
#X connect 2 0 14 0;
#X connect 2 0 11 0;
#X connect 2 0 10 0;
#X connect 2 0 9 0;
#X connect 2 0 26 0;
#X connect 2 0 27 0;
#X connect 2 0 44 0;
#X connect 2 0 45 0;
#X connect 2 0 46 0;
#X connect 2 0 47 0;
#X connect 2 0 48 0;
#X connect 2 0 49 0;
#X connect 2 0 50 0;
#X connect 2 0 51 0;
#X connect 4 0 16 0;
#X connect 9 0 17 0;
#X connect 10 0 18 0;
#X connect 11 0 19 0;
#X connect 14 0 20 0;
#X connect 15 0 21 0;
#X connect 16 0 5 0;
#X connect 17 0 6 0;
#X connect 18 0 7 0;
#X connect 19 0 8 0;
#X connect 20 0 12 0;
#X connect 21 0 13 0;
#X connect 23 0 22 0;
#X connect 25 0 24 0;
#X connect 26 0 23 0;
#X connect 27 0 25 0;
#X connect 34 0 28 0;
#X connect 35 0 29 0;
#X connect 36 0 30 0;
#X connect 37 0 31 0;
#X connect 38 0 32 0;
#X connect 39 0 33 0;
#X connect 41 0 40 0;
#X connect 43 0 42 0;
#X connect 44 0 34 0;
#X connect 45 0 35 0;
#X connect 46 0 36 0;
#X connect 47 0 37 0;
#X connect 48 0 38 0;
#X connect 49 0 39 0;
#X connect 50 0 41 0;
#X connect 51 0 43 0;
