#N canvas 215 184 1416 691 12;
#X obj 15 451 bpmToHz, f 129;
#X obj 15 38 inlet;
#X obj 59 38 loadbang;
#X obj 59 62 f \$1;
#X text 14 10 PARAM 1: Select BPM;
#X obj 195 38 inlet;
#X floatatom 15 92 5 0 0 0 - - - 0;
#X floatatom 195 86 5 0 0 0 - - - 0;
#X text 193 10 PARAM 2: Select time division. Values 0-127;
#X obj 195 108 mapFunction 0 127 0 15, f 23;
#X obj 15 495 spigot;
#X obj 75 495 spigot;
#X obj 135 495 spigot;
#X obj 195 495 spigot;
#X obj 255 495 spigot;
#X obj 315 495 spigot;
#X obj 375 495 spigot;
#X obj 435 495 spigot;
#X obj 495 495 spigot;
#X obj 555 495 spigot;
#X obj 615 495 spigot;
#X obj 675 495 spigot;
#X obj 735 495 spigot;
#X obj 795 495 spigot;
#X obj 855 495 spigot;
#X obj 915 495 spigot;
#X obj 435 569 outlet;
#X obj 249 38 loadbang;
#X obj 249 62 f \$2;
#X obj 195 132 int;
#X obj 54 306 setReset;
#X obj 54 266 sel 0;
#X obj 114 306 setReset;
#X obj 114 266 sel 1;
#X obj 174 306 setReset;
#X obj 234 306 setReset;
#X obj 174 266 sel 2;
#X obj 234 266 sel 3;
#X obj 294 306 setReset;
#X obj 354 306 setReset;
#X obj 414 306 setReset;
#X obj 474 306 setReset;
#X obj 294 266 sel 4;
#X obj 354 266 sel 5;
#X obj 414 266 sel 6;
#X obj 474 266 sel 7;
#X obj 534 306 setReset;
#X obj 594 306 setReset;
#X obj 654 306 setReset;
#X obj 714 306 setReset;
#X obj 774 306 setReset;
#X obj 834 306 setReset;
#X obj 894 306 setReset;
#X obj 954 306 setReset;
#X obj 534 266 sel 8;
#X obj 594 266 sel 9;
#X obj 654 266 sel 10;
#X obj 714 266 sel 11;
#X obj 777 267 sel 12;
#X obj 835 265 sel 13;
#X obj 894 266 sel 14;
#X obj 954 266 sel 15;
#X connect 0 0 10 0;
#X connect 0 1 11 0;
#X connect 0 2 12 0;
#X connect 0 3 13 0;
#X connect 0 4 14 0;
#X connect 0 5 15 0;
#X connect 0 6 16 0;
#X connect 0 7 17 0;
#X connect 0 8 18 0;
#X connect 0 9 19 0;
#X connect 0 10 20 0;
#X connect 0 11 21 0;
#X connect 0 12 22 0;
#X connect 0 13 23 0;
#X connect 0 14 24 0;
#X connect 0 15 25 0;
#X connect 1 0 6 0;
#X connect 2 0 3 0;
#X connect 3 0 6 0;
#X connect 5 0 7 0;
#X connect 6 0 0 0;
#X connect 7 0 9 0;
#X connect 9 0 29 0;
#X connect 10 0 26 0;
#X connect 11 0 26 0;
#X connect 12 0 26 0;
#X connect 13 0 26 0;
#X connect 14 0 26 0;
#X connect 15 0 26 0;
#X connect 16 0 26 0;
#X connect 17 0 26 0;
#X connect 18 0 26 0;
#X connect 19 0 26 0;
#X connect 20 0 26 0;
#X connect 21 0 26 0;
#X connect 22 0 26 0;
#X connect 23 0 26 0;
#X connect 24 0 26 0;
#X connect 25 0 26 0;
#X connect 27 0 28 0;
#X connect 28 0 7 0;
#X connect 29 0 31 0;
#X connect 29 0 61 0;
#X connect 29 0 60 0;
#X connect 29 0 59 0;
#X connect 29 0 58 0;
#X connect 29 0 57 0;
#X connect 29 0 56 0;
#X connect 29 0 55 0;
#X connect 29 0 54 0;
#X connect 29 0 45 0;
#X connect 29 0 44 0;
#X connect 29 0 43 0;
#X connect 29 0 42 0;
#X connect 29 0 37 0;
#X connect 29 0 36 0;
#X connect 29 0 33 0;
#X connect 30 0 10 1;
#X connect 31 0 30 0;
#X connect 31 1 30 1;
#X connect 32 0 11 1;
#X connect 33 0 32 0;
#X connect 33 1 32 1;
#X connect 34 0 12 1;
#X connect 35 0 13 1;
#X connect 36 0 34 0;
#X connect 36 1 34 1;
#X connect 37 0 35 0;
#X connect 37 1 35 1;
#X connect 38 0 14 1;
#X connect 39 0 15 1;
#X connect 40 0 16 1;
#X connect 41 0 17 1;
#X connect 42 0 38 0;
#X connect 42 1 38 1;
#X connect 43 0 39 0;
#X connect 43 1 39 1;
#X connect 44 0 40 0;
#X connect 44 1 40 1;
#X connect 45 0 41 0;
#X connect 45 1 41 1;
#X connect 46 0 18 1;
#X connect 47 0 19 1;
#X connect 48 0 20 1;
#X connect 49 0 21 1;
#X connect 50 0 22 1;
#X connect 51 0 23 1;
#X connect 52 0 24 1;
#X connect 53 0 25 1;
#X connect 54 0 46 0;
#X connect 54 1 46 1;
#X connect 55 0 47 0;
#X connect 55 1 47 1;
#X connect 56 0 48 0;
#X connect 56 1 48 1;
#X connect 57 0 49 0;
#X connect 57 1 49 1;
#X connect 58 0 50 0;
#X connect 58 1 50 1;
#X connect 59 0 51 0;
#X connect 59 1 51 1;
#X connect 60 0 52 0;
#X connect 60 1 52 1;
#X connect 61 0 53 0;
#X connect 61 1 53 1;
