#N canvas 212 385 690 608 12;
#X text 14 202 out;
#X obj 11 250 clockBpm 120, f 37;
#X obj 13 184 bng 15 250 50 0 empty empty empty 17 7 0 10 #fcfcfc #000000
#000000;
#X obj 13 163 bng 15 250 50 0 empty empty empty 17 7 0 10 #fcfcfc #000000
#000000;
#X obj 13 142 bng 15 250 50 0 empty empty empty 17 7 0 10 #fcfcfc #000000
#000000;
#X obj 13 121 bng 15 250 50 0 empty empty empty 17 7 0 10 #fcfcfc #000000
#000000;
#X obj 13 99 bng 15 250 50 0 empty empty empty 17 7 0 10 #fcfcfc #000000
#000000;
#X obj 13 78 bng 15 250 50 0 empty empty empty 17 7 0 10 #fcfcfc #000000
#000000;
#X obj 13 56 bng 15 250 50 0 empty empty empty 17 7 0 10 #fcfcfc #000000
#000000;
#X obj 13 35 bng 15 250 50 0 empty empty empty 17 7 0 10 #fcfcfc #000000
#000000;
#X obj 13 13 tgl 15 0 empty empty on 17 7 0 10 #fcfcfc #000000 #000000
0 1;
#X floatatom 47 14 5 10 350 1 bpm \$1-bpm - 0;
#X obj 278 42 loadbang;
#X msg 278 66 120;
#X obj 278 90 s \$1-bpm;
#X obj 21 401 outlet;
#X obj 88 400 outlet;
#X obj 155 399 outlet;
#X obj 223 398 outlet;
#X obj 292 398 outlet;
#X obj 361 397 outlet;
#X obj 428 396 outlet;
#X obj 496 395 outlet;
#X text 23 427 whole note, f 6;
#X text 90 427 1/2 note, f 6;
#X text 163 425 1/4 note, f 5;
#X text 230 425 1/16 note, f 6;
#X text 295 423 1/32 note, f 6;
#X obj 559 395 outlet;
#X text 69 203 clock;
#X connect 1 0 2 0;
#X connect 1 0 15 0;
#X connect 1 1 3 0;
#X connect 1 1 16 0;
#X connect 1 2 4 0;
#X connect 1 2 17 0;
#X connect 1 3 5 0;
#X connect 1 3 18 0;
#X connect 1 4 6 0;
#X connect 1 4 19 0;
#X connect 1 5 7 0;
#X connect 1 5 20 0;
#X connect 1 6 8 0;
#X connect 1 6 21 0;
#X connect 1 7 9 0;
#X connect 1 7 22 0;
#X connect 1 8 28 0;
#X connect 10 0 1 0;
#X connect 11 0 1 1;
#X connect 12 0 13 0;
#X connect 13 0 14 0;
#X coords 0 -1 1 1 100 210 2 10 10;
