#N canvas 303 426 582 493 12;
#X obj 23 12 inlet;
#X text 74 14 Send a bang to count through the bar;
#X obj 23 80 f;
#X obj 53 80 + 1;
#X obj 23 135 mod \$1;
#X obj 142 36 inlet;
#X text 189 37 Specify length of bar;
#X obj 23 188 + \$3;
#X obj 224 83 inlet;
#X text 271 84 Specify desired number of hits per bar;
#X obj 309 129 inlet;
#X text 356 130 Rhythm offset/rotation;
#X obj 23 255 * \$2;
#X obj 23 315 % \$1;
#X obj 23 376 < \$2;
#X obj 23 400 select 1;
#X obj 23 424 outlet;
#X text 94 402 Bang out on each hit;
#X obj 309 153 s \$0-rhythm;
#X obj 224 107 s \$0-hits;
#X obj 142 60 s \$0-length;
#X obj 62 106 r \$0-length;
#X obj 48 286 r \$0-length;
#X obj 48 163 r \$0-rhythm;
#X obj 48 224 r \$0-hits;
#X obj 48 345 r \$0-hits;
#X obj 413 175 inlet;
#X msg 413 199 0;
#X text 465 188 reset;
#X obj 413 223 s \$0-reset;
#X obj 35 48 r \$0-reset;
#X connect 0 0 2 0;
#X connect 2 0 3 0;
#X connect 2 0 4 0;
#X connect 3 0 2 1;
#X connect 4 0 7 0;
#X connect 5 0 20 0;
#X connect 7 0 12 0;
#X connect 8 0 19 0;
#X connect 10 0 18 0;
#X connect 12 0 13 0;
#X connect 13 0 14 0;
#X connect 14 0 15 0;
#X connect 15 0 16 0;
#X connect 21 0 4 1;
#X connect 22 0 13 1;
#X connect 23 0 7 1;
#X connect 24 0 12 1;
#X connect 25 0 14 1;
#X connect 26 0 27 0;
#X connect 27 0 29 0;
#X connect 30 0 2 0;
