#N canvas 869 478 450 442 12;
#X obj 23 25 inlet;
#X obj 23 110 f;
#X obj 52 110 + 1;
#X obj 23 179 mod;
#X obj 23 203 select 0, f 16;
#X obj 23 227 outlet;
#X obj 132 228 outlet;
#X text 18 252 Every n;
#X text 134 252 Others;
#X obj 134 25 inlet;
#X obj 134 108 max 0;
#X obj 324 24 inlet;
#X msg 324 48 0;
#X text 376 37 reset;
#X obj 324 72 s \$0-reset;
#X obj 49 78 r \$0-reset;
#X obj 179 25 loadbang;
#X obj 179 49 f \$1;
#X connect 0 0 1 0;
#X connect 1 0 2 0;
#X connect 1 0 3 0;
#X connect 2 0 1 1;
#X connect 3 0 4 0;
#X connect 4 0 5 0;
#X connect 4 1 6 0;
#X connect 9 0 10 0;
#X connect 10 0 3 1;
#X connect 11 0 12 0;
#X connect 12 0 14 0;
#X connect 15 0 1 0;
#X connect 16 0 17 0;
#X connect 17 0 10 0;
