#N canvas 723 461 691 422 12;
#X obj 116 38 inlet;
#X obj 160 38 loadbang;
#X text 115 10 PARAM 1: Select input to read;
#X obj 160 62 f \$1;
#X obj 16 203 timer;
#X floatatom 16 240 5 0 0 0 - - - 0;
#X obj 16 70 loadbang;
#X msg 79 223 bang;
#X msg 16 93 tempo 1 msec;
#X obj 16 263 expr 60000 / $f1;
#X obj 16 287 i;
#X obj 16 333 outlet;
#X obj 116 92 pepperReadInput;
#X connect 0 0 12 0;
#X connect 1 0 3 0;
#X connect 3 0 12 0;
#X connect 4 0 5 0;
#X connect 5 0 7 0;
#X connect 5 0 9 0;
#X connect 6 0 8 0;
#X connect 7 0 4 0;
#X connect 8 0 4 0;
#X connect 9 0 10 0;
#X connect 10 0 11 0;
#X connect 12 1 4 1;
