#N canvas 235 255 993 737 12;
#X obj 21 21 inlet~;
#X obj 284 21 inlet;
#X floatatom 284 115 5 0 0 1 delay\ time - - 0;
#X obj 155 214 *~;
#X obj 746 13 inlet;
#X floatatom 746 134 5 0 0 1 delay\ volume - - 0;
#X obj 746 110 clip 0 1;
#X obj 41 101 delwrite~ \$0-buffer 5000;
#X obj 22 375 outlet~;
#X obj 86 68 *~ 0.75;
#X obj 478 15 inlet;
#X floatatom 478 135 5 0 0 1 feedback - - 0;
#X obj 478 111 clip 0 0.95;
#X obj 478 86 filterSignal 500;
#X obj 284 169 delread4~ \$0-buffer 500;
#X obj 284 141 filterSignal~ 100;
#X obj 21 301 +~;
#X obj 284 193 s~ \$0-delayed;
#X obj 85 22 r~ \$0-delayed;
#X obj 478 158 s \$0-feedback;
#X obj 132 45 r \$0-feedback;
#X obj 156 160 r~ \$0-delayed;
#X obj 746 157 s \$0-wetVolume;
#X obj 173 185 r \$0-wetVolume;
#X obj 605 12 inlet;
#X floatatom 605 133 5 0 0 1 dry\ volume - - 0;
#X obj 605 109 clip 0 1;
#X obj 605 83 filterSignal 50;
#X obj 605 156 s \$0-dryVolume;
#X obj 22 209 *~;
#X obj 40 180 r \$0-dryVolume;
#X obj 328 21 loadbang;
#X obj 328 45 f \$1;
#X obj 522 15 loadbang;
#X obj 650 12 loadbang;
#X obj 791 13 loadbang;
#X obj 522 39 f \$2;
#X obj 650 36 f \$3;
#X obj 791 37 f \$4;
#X obj 746 84 filterSignal 100;
#X obj 284 91 clip 10 5000;
#X connect 0 0 7 0;
#X connect 0 0 29 0;
#X connect 1 0 40 0;
#X connect 2 0 15 0;
#X connect 3 0 16 1;
#X connect 4 0 39 0;
#X connect 5 0 22 0;
#X connect 6 0 5 0;
#X connect 9 0 7 0;
#X connect 10 0 13 0;
#X connect 11 0 19 0;
#X connect 12 0 11 0;
#X connect 13 0 12 0;
#X connect 14 0 17 0;
#X connect 15 0 14 0;
#X connect 16 0 8 0;
#X connect 18 0 9 0;
#X connect 20 0 9 1;
#X connect 21 0 3 0;
#X connect 23 0 3 1;
#X connect 24 0 27 0;
#X connect 25 0 28 0;
#X connect 26 0 25 0;
#X connect 27 0 26 0;
#X connect 29 0 16 0;
#X connect 30 0 29 1;
#X connect 31 0 32 0;
#X connect 32 0 40 0;
#X connect 33 0 36 0;
#X connect 34 0 37 0;
#X connect 35 0 38 0;
#X connect 36 0 13 0;
#X connect 37 0 27 0;
#X connect 38 0 39 0;
#X connect 39 0 6 0;
#X connect 40 0 2 0;
