#N canvas 165 248 651 651 12;
#X obj 160 10 vuMeter;
#X obj 218 13 r~ \$0-audio;
#X obj 19 588 outlet~;
#X obj 19 564 r~ \$0-audio;
#X obj 9 268 inlet~;
#X text 14 202 out;
#X text 69 203 delay;
#X text 13 10 in;
#X obj 100 267 r \$0-delay;
#X obj 192 267 r \$0-feed;
#X obj 284 267 r \$0-dry;
#X obj 376 267 r \$0-wet;
#X obj 8 335 s~ \$0-audio;
#X obj 19 73 hsl 128 15 0 1 0 0 \$0-feed \$1-feed feedback -2 -5 0
10 #ffc7c6 #000000 #000000 0 0;
#X obj 19 44 hsl 128 15 10 5000 0 1 \$0-delay \$1-delay time -2 -5
0 10 #c6ffc7 #000000 #000000 0 0;
#X obj 19 102 hsl 128 15 0 1 0 0 \$0-dry \$1-dry dry\\\ volume -2 -5
0 10 #ffffff #000000 #000000 0 0;
#X obj 20 131 hsl 128 15 0 1 0 0 \$0-wet \$1-wet wet\\\ volume -2 -5
0 10 #ffc7c6 #000000 #000000 0 0;
#X obj 8 311 simpleDelay 550 0.3 0.5 0.5, f 53;
#X obj 100 444 loadbang;
#X obj 13 444 loadbang;
#X obj 275 444 loadbang;
#X obj 182 444 loadbang;
#X text 27 415 init values;
#X floatatom 112 291 5 0 0 0 - - - 0;
#X floatatom 204 291 5 0 0 0 - - - 0;
#X floatatom 296 291 5 0 0 0 - - - 0;
#X floatatom 388 291 5 0 0 0 - - - 0;
#X obj 13 492 s \$1-delay;
#X msg 13 468 550;
#X msg 100 468 0.3;
#X msg 182 468 0.5;
#X msg 275 468 0.5;
#X obj 100 492 s \$1-feed;
#X obj 182 492 s \$1-dry;
#X obj 275 492 s \$1-wet;
#X connect 1 0 0 0;
#X connect 3 0 2 0;
#X connect 4 0 17 0;
#X connect 8 0 17 1;
#X connect 8 0 23 0;
#X connect 9 0 17 2;
#X connect 9 0 24 0;
#X connect 10 0 17 3;
#X connect 10 0 25 0;
#X connect 11 0 17 4;
#X connect 11 0 26 0;
#X connect 17 0 12 0;
#X connect 18 0 29 0;
#X connect 19 0 28 0;
#X connect 20 0 31 0;
#X connect 21 0 30 0;
#X connect 28 0 27 0;
#X connect 29 0 32 0;
#X connect 30 0 33 0;
#X connect 31 0 34 0;
#X coords 0 -1 1 1 200 210 2 10 10;
