#N canvas 1015 446 748 489 12;
#X obj 21 21 inlet~;
#X obj 41 60 delwrite~ \$0-buffer 5000;
#X obj 267 18 inlet;
#X obj 267 76 clip 0 2000;
#X floatatom 267 100 5 0 0 1 delay\ time - - 0;
#X obj 267 123 delread~ \$0-buffer 0;
#X obj 21 93 s~ \$0-dry;
#X obj 365 179 *~;
#X obj 460 18 inlet;
#X floatatom 460 100 5 0 0 1 delay\ volume - - 0;
#X obj 460 76 clip 0 1;
#X obj 365 203 s~ \$0-wet;
#X obj 23 229 r~ \$0-dry;
#X obj 62 261 outlet~;
#X obj 99 229 r~ \$0-wet;
#X obj 267 42 filterSignal50ms;
#X connect 0 0 1 0;
#X connect 0 0 6 0;
#X connect 2 0 15 0;
#X connect 3 0 4 0;
#X connect 4 0 5 0;
#X connect 5 0 7 0;
#X connect 7 0 11 0;
#X connect 8 0 10 0;
#X connect 9 0 7 1;
#X connect 10 0 9 0;
#X connect 12 0 13 0;
#X connect 14 0 13 0;
#X connect 15 0 3 0;
