#N canvas 501 302 903 366 12;
#X obj 12 62 inlet;
#X obj 143 64 inlet;
#X obj 275 64 inlet;
#X floatatom 143 88 5 0 0 0 - - - 0;
#X floatatom 275 88 5 0 0 0 - - - 0;
#X floatatom 12 220 5 0 0 0 - - - 0;
#X floatatom 12 86 5 0 0 0 - - - 0;
#X obj 12 196 expr ($f1 - $f2) * (127) / ($f3 - $f2);
#X obj 12 243 int;
#X text 9 1 map(x[\$1] \, in_min[\$2] \, in_max[\$3] \, out_min[0]
\, out_max[127]), f 70;
#X text 8 21 return (x[\$1] - in_min[\$2]) * (127 - 0) / (in_max[\$3]
- in_min[\$2]) + 0 \;, f 117;
#X obj 12 119 * 100000;
#X obj 12 140 / 100;
#X obj 12 161 int;
#X obj 12 267 clip 0 127;
#X obj 12 291 outlet;
#X connect 0 0 6 0;
#X connect 1 0 3 0;
#X connect 2 0 4 0;
#X connect 3 0 7 1;
#X connect 4 0 7 2;
#X connect 5 0 8 0;
#X connect 6 0 11 0;
#X connect 7 0 5 0;
#X connect 8 0 14 0;
#X connect 11 0 12 0;
#X connect 12 0 13 0;
#X connect 13 0 7 0;
#X connect 14 0 15 0;
