#N canvas 112 579 903 300 12;
#X obj 12 62 inlet;
#X obj 105 60 inlet;
#X obj 199 60 inlet;
#X obj 293 60 inlet;
#X obj 387 60 inlet;
#X text 8 21 return (x[\$1] - in_min[\$2]) * (out_max[\$5] - out_min[\$4])
/ (in_max[\$3] - in_min[\$2]) + out_min[\$4] \;, f 117;
#X text 8 1 map(x[\$1] \, in_min[\$2] \, in_max[\$3] \, out_min[\$4]
\, out_max[\$5]), f 70;
#X floatatom 105 128 5 0 0 0 - - - 0;
#X floatatom 199 127 5 0 0 0 - - - 0;
#X floatatom 293 127 5 0 0 0 - - - 0;
#X floatatom 387 126 5 0 0 0 - - - 0;
#X floatatom 12 174 5 0 0 0 - - - 0;
#X floatatom 12 126 5 0 0 0 - - - 0;
#X obj 12 197 clip 0 1;
#X obj 12 221 outlet;
#X obj 491 51 loadbang;
#X obj 491 75 f \$1;
#X obj 581 51 loadbang;
#X obj 661 51 loadbang;
#X obj 751 51 loadbang;
#X obj 581 75 f \$2;
#X obj 661 75 f \$3;
#X obj 751 75 f \$4;
#X obj 12 150 expr ($f1 - $f2) * ($f5 - $f4) / ($f3 - $f2) + $f4,
f 54;
#X connect 0 0 12 0;
#X connect 1 0 7 0;
#X connect 2 0 8 0;
#X connect 3 0 9 0;
#X connect 4 0 10 0;
#X connect 7 0 23 1;
#X connect 8 0 23 2;
#X connect 9 0 13 1;
#X connect 9 0 23 3;
#X connect 10 0 13 2;
#X connect 10 0 23 4;
#X connect 11 0 13 0;
#X connect 12 0 23 0;
#X connect 13 0 14 0;
#X connect 15 0 16 0;
#X connect 16 0 7 0;
#X connect 17 0 20 0;
#X connect 18 0 21 0;
#X connect 19 0 22 0;
#X connect 20 0 8 0;
#X connect 21 0 9 0;
#X connect 22 0 10 0;
#X connect 23 0 11 0;
