#N canvas 533 512 903 348 12;
#X obj 12 59 inlet;
#X obj 143 61 inlet;
#X obj 275 61 inlet;
#X floatatom 143 135 5 0 0 0 - - - 0;
#X floatatom 275 135 5 0 0 0 - - - 0;
#X floatatom 12 217 5 0 0 0 - - - 0;
#X floatatom 12 83 5 0 0 0 - - - 0;
#X obj 12 193 expr ($f1 - $f2) * (127) / ($f3 - $f2);
#X obj 12 240 int;
#X text 59 218 map(x[\$1] \, in_min[\$2] \, in_max[\$3] \, out_min[0]
\, out_max[127]), f 70;
#X text 58 238 return (x[\$1] - in_min[\$2]) * (127 - 0) / (in_max[\$3]
- in_min[\$2]) + 0 \;, f 117;
#X obj 22 116 * 100000;
#X obj 22 137 / 100;
#X obj 22 158 int;
#X obj 12 264 clip 0 127;
#X obj 12 288 outlet;
#X obj 190 61 loadbang;
#X obj 190 85 f \$1;
#X obj 320 61 loadbang;
#X text 145 33 PARAM 1: Min value to scale;
#X text 365 33 PARAM 2: Max value to scale;
#X obj 320 85 f \$2;
#X connect 0 0 6 0;
#X connect 1 0 3 0;
#X connect 2 0 4 0;
#X connect 3 0 7 1;
#X connect 4 0 7 2;
#X connect 5 0 8 0;
#X connect 6 0 7 0;
#X connect 7 0 5 0;
#X connect 8 0 14 0;
#X connect 11 0 12 0;
#X connect 12 0 13 0;
#X connect 14 0 15 0;
#X connect 16 0 17 0;
#X connect 17 0 3 0;
#X connect 18 0 21 0;
#X connect 21 0 4 0;
