#N canvas 501 302 903 300 12;
#X obj 12 62 inlet;
#X obj 98 64 inlet;
#X obj 185 63 inlet;
#X obj 272 63 inlet;
#X obj 359 62 inlet;
#X text 8 21 return (x[\$1] - in_min[\$2]) * (out_max[\$5] - out_min[\$4])
/ (in_max[\$3] - in_min[\$2]) + out_min[\$4] \;, f 117;
#X text 8 1 map(x[\$1] \, in_min[\$2] \, in_max[\$3] \, out_min[\$4]
\, out_max[\$5]), f 70;
#X floatatom 98 88 5 0 0 0 - - - 0;
#X floatatom 185 87 5 0 0 0 - - - 0;
#X floatatom 272 87 5 0 0 0 - - - 0;
#X floatatom 359 86 5 0 0 0 - - - 0;
#X floatatom 12 174 5 0 0 0 - - - 0;
#X floatatom 12 86 5 0 0 0 - - - 0;
#X obj 12 150 expr ($f1 - $f2) * ($f5 - $f4) / ($f3 - $f2) + $f4;
#X obj 12 197 clip 0 1;
#X obj 12 221 outlet;
#X connect 0 0 12 0;
#X connect 1 0 7 0;
#X connect 2 0 8 0;
#X connect 3 0 9 0;
#X connect 4 0 10 0;
#X connect 7 0 13 1;
#X connect 8 0 13 2;
#X connect 9 0 13 3;
#X connect 9 0 14 1;
#X connect 10 0 13 4;
#X connect 10 0 14 2;
#X connect 11 0 14 0;
#X connect 12 0 13 0;
#X connect 13 0 11 0;
#X connect 14 0 15 0;
