#N canvas 1028 172 445 329 12;
#X obj 19 18 inlet midiNote;
#X obj 270 18 loadbang;
#X obj 270 42 f \$1;
#X obj 150 18 inlet constant;
#X obj 65 241 outlet~ toCv;
#X obj 65 185 *~ 0.2;
#X obj 65 111 / 12;
#X obj 65 162 *;
#X obj 19 93 t b f;
#X connect 0 0 8 0;
#X connect 1 0 2 0;
#X connect 2 0 6 0;
#X connect 3 0 6 0;
#X connect 5 0 4 0;
#X connect 6 0 7 0;
#X connect 7 0 5 0;
#X connect 8 0 7 0;
#X connect 8 1 7 1;
