#N canvas 702 675 681 158 12;
#X obj 6 19 adc~ 3;
#X obj 6 43 lop~ 10;
#X obj 86 43 lop~ 10;
#X obj 166 43 lop~ 10;
#X obj 246 43 lop~ 10;
#X obj 326 43 lop~ 10;
#X obj 406 43 lop~ 10;
#X obj 486 43 lop~ 10;
#X obj 566 43 lop~ 10;
#X obj 86 19 adc~ 4;
#X obj 166 19 adc~ 5;
#X obj 246 19 adc~ 6;
#X obj 326 19 adc~ 7;
#X obj 406 19 adc~ 8;
#X obj 486 19 adc~ 9;
#X obj 566 19 adc~ 10;
#X obj 6 67 outlet~;
#X obj 86 67 outlet~;
#X obj 166 67 outlet~;
#X obj 246 67 outlet~;
#X obj 326 67 outlet~;
#X obj 406 67 outlet~;
#X obj 486 67 outlet~;
#X obj 566 67 outlet~;
#X connect 0 0 1 0;
#X connect 1 0 16 0;
#X connect 2 0 17 0;
#X connect 3 0 18 0;
#X connect 4 0 19 0;
#X connect 5 0 20 0;
#X connect 6 0 21 0;
#X connect 7 0 22 0;
#X connect 8 0 23 0;
#X connect 9 0 2 0;
#X connect 10 0 3 0;
#X connect 11 0 4 0;
#X connect 12 0 5 0;
#X connect 13 0 6 0;
#X connect 14 0 7 0;
#X connect 15 0 8 0;
