#N canvas 311 173 758 525 12;
#X obj 26 38 inlet;
#X obj 70 38 loadbang;
#X text 25 10 PARAM 1: Select input to read;
#X obj 70 62 f \$1;
#X obj 26 116 tgl 15 0 empty empty empty 17 7 0 10 #fcfcfc #000000
#000000 0 1;
#X obj 49 116 tgl 15 0 empty empty empty 17 7 0 10 #fcfcfc #000000
#000000 0 1;
#X obj 72 116 tgl 15 0 empty empty empty 17 7 0 10 #fcfcfc #000000
#000000 0 1;
#X obj 95 116 tgl 15 0 empty empty empty 17 7 0 10 #fcfcfc #000000
#000000 0 1;
#X obj 26 92 select 0 1 2 3 4 5 6 7, f 27;
#X obj 119 116 tgl 15 0 empty empty empty 17 7 0 10 #fcfcfc #000000
#000000 0 1;
#X obj 142 116 tgl 15 0 empty empty empty 17 7 0 10 #fcfcfc #000000
#000000 0 1;
#X obj 165 116 tgl 15 0 empty empty empty 17 7 0 10 #fcfcfc #000000
#000000 0 1;
#X obj 188 116 tgl 15 0 empty empty empty 17 7 0 10 #fcfcfc #000000
#000000 0 1;
#X obj 56 166 adc~ 3;
#X obj 126 166 adc~ 4;
#X obj 196 166 adc~ 5;
#X obj 266 166 adc~ 6;
#X obj 336 166 adc~ 7;
#X obj 406 166 adc~ 8;
#X obj 476 166 adc~ 9;
#X obj 546 166 adc~ 10;
#X obj 554 68 tgl 15 0 empty empty empty 17 7 0 10 #fcfcfc #000000
#000000 0 1;
#X obj 554 44 loadbang;
#X text 302 403 Value;
#X obj 554 86 metro 10;
#X obj 56 306 spigot;
#X obj 126 306 spigot;
#X obj 196 306 spigot;
#X obj 266 306 spigot;
#X obj 336 306 spigot;
#X obj 406 306 spigot;
#X obj 476 306 spigot;
#X obj 546 306 spigot;
#X obj 56 216 snapshot~;
#X obj 126 216 snapshot~;
#X obj 196 216 snapshot~;
#X obj 266 216 snapshot~;
#X obj 336 216 snapshot~;
#X obj 406 216 snapshot~;
#X obj 476 216 snapshot~;
#X obj 546 216 snapshot~;
#X obj 302 379 outlet;
#X floatatom 546 240 5 0 0 0 - - - 0;
#X floatatom 476 240 5 0 0 0 - - - 0;
#X floatatom 406 240 5 0 0 0 - - - 0;
#X floatatom 336 240 5 0 0 0 - - - 0;
#X floatatom 266 240 5 0 0 0 - - - 0;
#X floatatom 196 240 5 0 0 0 - - - 0;
#X floatatom 126 240 5 0 0 0 - - - 0;
#X floatatom 56 240 5 0 0 0 - - - 0;
#X connect 0 0 8 0;
#X connect 1 0 3 0;
#X connect 3 0 8 0;
#X connect 4 0 25 1;
#X connect 5 0 26 1;
#X connect 6 0 27 1;
#X connect 7 0 28 1;
#X connect 8 0 4 0;
#X connect 8 1 5 0;
#X connect 8 2 6 0;
#X connect 8 3 7 0;
#X connect 8 4 9 0;
#X connect 8 5 10 0;
#X connect 8 6 11 0;
#X connect 8 7 12 0;
#X connect 9 0 29 1;
#X connect 10 0 30 1;
#X connect 11 0 31 1;
#X connect 12 0 32 1;
#X connect 13 0 33 0;
#X connect 14 0 34 0;
#X connect 15 0 35 0;
#X connect 16 0 36 0;
#X connect 17 0 37 0;
#X connect 18 0 38 0;
#X connect 19 0 39 0;
#X connect 20 0 40 0;
#X connect 21 0 24 0;
#X connect 22 0 21 0;
#X connect 24 0 33 0;
#X connect 24 0 40 0;
#X connect 24 0 39 0;
#X connect 24 0 38 0;
#X connect 24 0 37 0;
#X connect 24 0 36 0;
#X connect 24 0 35 0;
#X connect 24 0 34 0;
#X connect 25 0 41 0;
#X connect 26 0 41 0;
#X connect 27 0 41 0;
#X connect 28 0 41 0;
#X connect 29 0 41 0;
#X connect 30 0 41 0;
#X connect 31 0 41 0;
#X connect 32 0 41 0;
#X connect 33 0 49 0;
#X connect 34 0 48 0;
#X connect 35 0 47 0;
#X connect 36 0 46 0;
#X connect 37 0 45 0;
#X connect 38 0 44 0;
#X connect 39 0 43 0;
#X connect 40 0 42 0;
#X connect 42 0 32 0;
#X connect 43 0 31 0;
#X connect 44 0 30 0;
#X connect 45 0 29 0;
#X connect 46 0 28 0;
#X connect 47 0 27 0;
#X connect 48 0 26 0;
#X connect 49 0 25 0;
