#N canvas 298 152 1096 382 12;
#X obj 85 132 adc~ 3;
#X obj 86 222 snapshot~;
#X obj 32 152 metro;
#X obj 32 103 tgl 15 1 empty empty empty 17 7 0 10 #fcfcfc #000000
#000000 1 1;
#X obj 64 39 inlet;
#X obj 111 39 loadbang;
#X obj 111 63 f \$1;
#X text 66 11 PARAM 1: Milliseconds;
#X obj 86 303 outlet;
#X obj 176 219 snapshot~;
#X obj 176 300 outlet;
#X obj 272 218 snapshot~;
#X obj 272 299 outlet;
#X obj 371 219 snapshot~;
#X obj 371 300 outlet;
#X obj 467 217 snapshot~;
#X obj 467 298 outlet;
#X obj 557 214 snapshot~;
#X obj 557 295 outlet;
#X obj 653 213 snapshot~;
#X obj 653 294 outlet;
#X obj 752 214 snapshot~;
#X obj 752 295 outlet;
#X obj 175 129 adc~ 4;
#X obj 271 128 adc~ 5;
#X obj 370 129 adc~ 6;
#X obj 466 127 adc~ 7;
#X obj 556 124 adc~ 8;
#X obj 652 124 adc~ 9;
#X obj 751 124 adc~ 10;
#X obj 86 246 change;
#X obj 176 243 change;
#X obj 272 242 change;
#X obj 371 243 change;
#X obj 467 241 change;
#X obj 557 238 change;
#X obj 653 237 change;
#X obj 752 238 change;
#X connect 0 0 1 0;
#X connect 1 0 30 0;
#X connect 2 0 1 0;
#X connect 2 0 9 0;
#X connect 2 0 21 0;
#X connect 2 0 19 0;
#X connect 2 0 17 0;
#X connect 2 0 15 0;
#X connect 2 0 13 0;
#X connect 2 0 11 0;
#X connect 3 0 2 0;
#X connect 4 0 2 1;
#X connect 5 0 6 0;
#X connect 6 0 2 1;
#X connect 9 0 31 0;
#X connect 11 0 32 0;
#X connect 13 0 33 0;
#X connect 15 0 34 0;
#X connect 17 0 35 0;
#X connect 19 0 36 0;
#X connect 21 0 37 0;
#X connect 23 0 9 0;
#X connect 24 0 11 0;
#X connect 25 0 13 0;
#X connect 26 0 15 0;
#X connect 27 0 17 0;
#X connect 28 0 19 0;
#X connect 29 0 21 0;
#X connect 30 0 8 0;
#X connect 31 0 10 0;
#X connect 32 0 12 0;
#X connect 33 0 14 0;
#X connect 34 0 16 0;
#X connect 35 0 18 0;
#X connect 36 0 20 0;
#X connect 37 0 22 0;
