#N canvas 1493 626 373 383 12;
#X obj 96 55 sel 0 1;
#X obj 96 209 outlet;
#X obj 156 209 outlet;
#X text 95 233 ON/OFF;
#X text 154 233 ON;
#X obj 216 209 outlet;
#X text 214 233 OFF;
#X obj 26 209 outlet;
#X text 24 233 Value;
#X obj 96 26 r bela_digitalIn23;
#X obj 96 150 tgl 15 0 empty empty empty 17 7 0 10 #fcfcfc #000000
#000000 0 1;
#X text 169 175 triggers;
#X connect 0 0 5 0;
#X connect 0 1 2 0;
#X connect 0 1 10 0;
#X connect 9 0 0 0;
#X connect 9 0 7 0;
#X connect 10 0 1 0;
