#N canvas 260 260 590 300 12;
#X obj 246 49 inlet;
#X obj 296 49 loadbang;
#X floatatom 246 103 5 0 0 0 - - - 0;
#X obj 246 126 floatToDecimal;
#X obj 90 190 mapFunctionToMidi, f 45;
#X obj 402 49 inlet;
#X obj 452 49 loadbang;
#X floatatom 402 103 5 0 0 0 - - - 0;
#X obj 402 126 floatToDecimal;
#X obj 34 224 outlet;
#X obj 90 224 outlet;
#X text 245 16 PARAM 2: CV0 min;
#X text 401 16 PARAM 3: CV0 max;
#X obj 452 73 f \$3;
#X obj 296 73 f \$2;
#X obj 90 49 inlet;
#X obj 140 49 loadbang;
#X obj 140 73 f \$1;
#X floatatom 90 103 5 0 0 0 - - - 0;
#X text 89 16 PARAM 1: CV input;
#X obj 90 126 pepperReadCv;
#X connect 0 0 2 0;
#X connect 1 0 14 0;
#X connect 2 0 3 0;
#X connect 3 0 4 1;
#X connect 4 0 10 0;
#X connect 5 0 7 0;
#X connect 6 0 13 0;
#X connect 7 0 8 0;
#X connect 8 0 4 2;
#X connect 13 0 7 0;
#X connect 14 0 2 0;
#X connect 15 0 18 0;
#X connect 16 0 17 0;
#X connect 17 0 18 0;
#X connect 18 0 20 0;
#X connect 20 0 4 0;
#X connect 20 0 9 0;
