#N canvas 156 156 450 407 12;
#X obj 18 270 +~;
#X obj 137 86 lop~ 10;
#X obj 317 138 lop~ 10;
#X obj 138 209 *~;
#X obj 19 365 outlet~;
#X obj 317 25 inlet~ feedback;
#X obj 19 25 inlet~ audioIn;
#X obj 137 25 inlet~ amount;
#X obj 137 112 *~ 2000;
#X obj 137 138 delread4~ \$0-simpleDelay;
#X obj 28 311 delwrite~ \$0-simpleDelay 2000;
#X obj 19 341 clip~ -1 1;
#X connect 0 0 10 0;
#X connect 0 0 11 0;
#X connect 1 0 8 0;
#X connect 2 0 3 1;
#X connect 3 0 0 1;
#X connect 5 0 2 0;
#X connect 6 0 0 0;
#X connect 7 0 1 0;
#X connect 8 0 9 0;
#X connect 9 0 3 0;
#X connect 11 0 4 0;
