#N canvas 691 224 450 300 12;
#X obj 163 61 bng 15 250 50 0 empty empty empty 17 7 0 10 #fcfcfc #000000
#000000;
#X obj 47 61 bng 15 250 50 0 empty empty empty 17 7 0 10 #fcfcfc #000000
#000000;
#X obj 163 155 + 1;
#X obj 47 155 - 1;
#X obj 92 155 int 1;
#X floatatom 92 219 5 0 0 0 - - - 0;
#X msg 324 82 0;
#X obj 92 249 outlet;
#X obj 13 8 inlet minus;
#X obj 103 8 inlet plus;
#X obj 193 8 inlet reset;
#X connect 0 0 2 0;
#X connect 0 0 4 0;
#X connect 1 0 3 0;
#X connect 1 0 4 0;
#X connect 2 0 4 1;
#X connect 3 0 4 1;
#X connect 4 0 5 0;
#X connect 4 0 2 0;
#X connect 4 0 3 0;
#X connect 5 0 7 0;
#X connect 6 0 4 0;
#X connect 8 0 1 0;
#X connect 9 0 0 0;
#X connect 10 0 6 0;
