#N canvas 344 585 530 331 12;
#X obj 275 13 inlet~;
#X obj 275 82 tabwrite~ \$0-oscilloscope;
#X obj 341 43 metro 100;
#X obj 341 15 tgl 15 1 empty empty empty 17 7 0 10 #fcfcfc #000000
#000000 1 1;
#N canvas 0 50 450 250 (subpatch) 0;
#X array \$0-oscilloscope 172 float 4;
#X coords 0 1 171 -1 235 128 1 0 0;
#X restore 15 28 graph;
#X msg 15 230 resize \$1;
#X obj 15 254 s \$0-oscilloscope;
#X obj 18 158 hsl 230 15 44 4400 1 1 empty empty empty -2 -8 0 10 #fcfcfc
#000000 #000000 6800 1;
#X text 143 201 Patch copied from: https://www.youtube.com/watch?v=1B0h-MzNqp0
;
#X connect 0 0 1 0;
#X connect 2 0 1 0;
#X connect 3 0 2 0;
#X connect 5 0 6 0;
#X connect 7 0 5 0;
#X coords 0 -1 1 1 245 170 2 10 10;
