#N canvas 403 123 1337 856 12;
#X obj 183 22 CD74HC4067_Sample;
#X obj 49 181 osc~ 220;
#X obj 49 50 mtof;
#X obj 48 758 volumen;
#X obj 48 790 clip~ -1 1;
#X obj 48 824 dac~ 1 2;
#X obj 94 729 midiToFloat;
#X obj 94 705 r mux1pot1midiValue;
#X obj 240 126 tgl 15 0 empty empty empty 17 7 0 10 #fcfcfc #000000
#000000 0 1;
#X obj 234 238 i;
#X obj 264 238 + 1;
#X obj 240 98 loadbang;
#X obj 234 262 % 4;
#X obj 49 22 r midiNote;
#X obj 95 609 vline~;
#X obj 234 290 sel 0 1 2 3;
#X obj 234 455 i;
#X obj 250 382 r mux1pot8midiValue;
#X obj 250 406 sel 0;
#X obj 376 455 i;
#X obj 392 406 sel 0;
#X obj 518 455 i;
#X obj 534 406 sel 0;
#X obj 660 455 i;
#X obj 676 406 sel 0;
#X obj 392 382 r mux1pot7midiValue;
#X obj 534 382 r mux1pot6midiValue;
#X obj 676 382 r mux1pot5midiValue;
#X obj 234 479 s midiNote;
#X obj 376 479 s midiNote;
#X obj 518 479 s midiNote;
#X obj 660 479 s midiNote;
#X obj 123 181 phasor~ 220;
#X obj 49 635 *~;
#X msg 95 585 1 10 1 \, 0 10 100;
#X obj 322 106 i;
#X obj 240 160 clockBpm, f 24;
#X obj 385 132 print bpm:;
#X obj 322 57 r mux1pot2midiValue;
#X obj 322 82 mapFunction 1 127 10 300;
#X obj 49 134 * 2;
#X obj 49 669 simpleDelay 150 0.2 1 1;
#X connect 2 0 32 0;
#X connect 2 0 40 0;
#X connect 3 0 4 0;
#X connect 4 0 5 0;
#X connect 4 0 5 1;
#X connect 6 0 3 1;
#X connect 7 0 6 0;
#X connect 8 0 36 0;
#X connect 9 0 10 0;
#X connect 9 0 12 0;
#X connect 10 0 9 1;
#X connect 11 0 8 0;
#X connect 12 0 15 0;
#X connect 13 0 2 0;
#X connect 14 0 33 1;
#X connect 15 0 16 0;
#X connect 15 1 19 0;
#X connect 15 2 21 0;
#X connect 15 3 23 0;
#X connect 16 0 28 0;
#X connect 16 0 34 0;
#X connect 17 0 18 0;
#X connect 18 1 16 1;
#X connect 19 0 29 0;
#X connect 19 0 34 0;
#X connect 20 1 19 1;
#X connect 21 0 30 0;
#X connect 21 0 34 0;
#X connect 22 1 21 1;
#X connect 23 0 31 0;
#X connect 23 0 34 0;
#X connect 24 1 23 1;
#X connect 25 0 20 0;
#X connect 26 0 22 0;
#X connect 27 0 24 0;
#X connect 32 0 33 0;
#X connect 33 0 41 0;
#X connect 34 0 14 0;
#X connect 35 0 36 1;
#X connect 36 2 9 0;
#X connect 38 0 39 0;
#X connect 39 0 35 0;
#X connect 40 0 1 0;
#X connect 41 0 3 0;
