#N canvas 154 647 1520 300 12;
#X obj 137 35 sel 0 1 2 3 4 5 6 7 8 9 10 11 12 13 14 15, f 184;
#X obj 9 9 inlet analogInput;
#X obj 137 9 inlet index;
#X obj 721 110 captureValue;
#X obj 9 110 captureValue;
#X obj 98 110 captureValue;
#X obj 187 110 captureValue;
#X obj 276 110 captureValue;
#X obj 365 110 captureValue;
#X obj 454 110 captureValue;
#X obj 543 110 captureValue;
#X obj 632 110 captureValue;
#X obj 1344 110 captureValue;
#X obj 1255 110 captureValue;
#X obj 1166 110 captureValue;
#X obj 1077 110 captureValue;
#X obj 988 110 captureValue;
#X obj 899 110 captureValue;
#X obj 810 110 captureValue;
#X obj 9 158 outlet;
#X floatatom 9 134 5 0 0 0 - - - 0;
#X obj 98 157 outlet;
#X floatatom 98 133 5 0 0 0 - - - 0;
#X obj 186 157 outlet;
#X floatatom 186 133 5 0 0 0 - - - 0;
#X obj 275 157 outlet;
#X floatatom 275 133 5 0 0 0 - - - 0;
#X obj 365 156 outlet;
#X floatatom 365 132 5 0 0 0 - - - 0;
#X obj 453 156 outlet;
#X floatatom 453 132 5 0 0 0 - - - 0;
#X obj 542 156 outlet;
#X floatatom 542 132 5 0 0 0 - - - 0;
#X obj 631 157 outlet;
#X floatatom 631 133 5 0 0 0 - - - 0;
#X obj 721 156 outlet;
#X floatatom 721 132 5 0 0 0 - - - 0;
#X obj 809 156 outlet;
#X floatatom 809 132 5 0 0 0 - - - 0;
#X obj 899 156 outlet;
#X floatatom 899 132 5 0 0 0 - - - 0;
#X obj 987 157 outlet;
#X floatatom 987 133 5 0 0 0 - - - 0;
#X obj 1077 157 outlet;
#X floatatom 1077 133 5 0 0 0 - - - 0;
#X obj 1165 157 outlet;
#X floatatom 1165 133 5 0 0 0 - - - 0;
#X obj 1254 157 outlet;
#X floatatom 1254 133 5 0 0 0 - - - 0;
#X obj 1344 157 outlet;
#X floatatom 1344 133 5 0 0 0 - - - 0;
#X connect 0 0 4 1;
#X connect 0 0 12 2;
#X connect 0 1 4 2;
#X connect 0 1 5 1;
#X connect 0 2 5 2;
#X connect 0 2 6 1;
#X connect 0 3 6 2;
#X connect 0 3 7 1;
#X connect 0 4 7 2;
#X connect 0 4 8 1;
#X connect 0 5 8 2;
#X connect 0 5 9 1;
#X connect 0 6 9 2;
#X connect 0 6 10 1;
#X connect 0 7 10 2;
#X connect 0 7 11 1;
#X connect 0 8 3 1;
#X connect 0 8 11 2;
#X connect 0 9 3 2;
#X connect 0 9 18 1;
#X connect 0 10 17 1;
#X connect 0 10 18 2;
#X connect 0 11 16 1;
#X connect 0 11 17 2;
#X connect 0 12 15 1;
#X connect 0 12 16 2;
#X connect 0 13 14 1;
#X connect 0 13 15 2;
#X connect 0 14 13 1;
#X connect 0 14 14 2;
#X connect 0 15 12 1;
#X connect 0 15 13 2;
#X connect 1 0 4 0;
#X connect 1 0 3 0;
#X connect 1 0 5 0;
#X connect 1 0 6 0;
#X connect 1 0 7 0;
#X connect 1 0 8 0;
#X connect 1 0 9 0;
#X connect 1 0 10 0;
#X connect 1 0 11 0;
#X connect 1 0 12 0;
#X connect 1 0 13 0;
#X connect 1 0 14 0;
#X connect 1 0 15 0;
#X connect 1 0 16 0;
#X connect 1 0 17 0;
#X connect 1 0 18 0;
#X connect 2 0 0 0;
#X connect 3 0 36 0;
#X connect 4 0 20 0;
#X connect 5 0 22 0;
#X connect 6 0 24 0;
#X connect 7 0 26 0;
#X connect 8 0 28 0;
#X connect 9 0 30 0;
#X connect 10 0 32 0;
#X connect 11 0 34 0;
#X connect 12 0 50 0;
#X connect 13 0 48 0;
#X connect 14 0 46 0;
#X connect 15 0 44 0;
#X connect 16 0 42 0;
#X connect 17 0 40 0;
#X connect 18 0 38 0;
#X connect 20 0 19 0;
#X connect 22 0 21 0;
#X connect 24 0 23 0;
#X connect 26 0 25 0;
#X connect 28 0 27 0;
#X connect 30 0 29 0;
#X connect 32 0 31 0;
#X connect 34 0 33 0;
#X connect 36 0 35 0;
#X connect 38 0 37 0;
#X connect 40 0 39 0;
#X connect 42 0 41 0;
#X connect 44 0 43 0;
#X connect 46 0 45 0;
#X connect 48 0 47 0;
#X connect 50 0 49 0;
