#N canvas 962 665 896 548 12;
#X obj 21 27 inlet;
#X obj 21 128 metro;
#X obj 300 212 f;
#X obj 21 353 mod 32;
#X obj 21 377 select 0;
#X obj 21 401 outlet;
#X obj 78 27 inlet;
#X obj 78 91 expr 60000/(8*$f1);
#X obj 125 27 loadbang;
#X obj 125 51 f \$1;
#X obj 328 212 + 1;
#X obj 88 376 select 0;
#X obj 88 400 outlet;
#X obj 155 375 select 0;
#X obj 155 399 outlet;
#X obj 223 374 select 0;
#X obj 223 398 outlet;
#X obj 292 374 select 0;
#X obj 292 398 outlet;
#X obj 361 373 select 0;
#X obj 361 397 outlet;
#X obj 428 372 select 0;
#X obj 428 396 outlet;
#X obj 496 371 select 0;
#X obj 496 395 outlet;
#X obj 88 352 mod 16;
#X obj 155 351 mod 8;
#X obj 223 350 mod 4;
#X obj 292 350 mod 2;
#X obj 361 349 mod 24;
#X obj 428 348 mod 12;
#X obj 496 347 mod 3;
#X text 23 427 whole note, f 6;
#X text 90 427 1/2 note, f 6;
#X obj 275 27 inlet;
#X msg 275 51 0;
#X text 327 40 reset;
#X text 163 425 1/4 note, f 5;
#X text 230 425 1/16 note, f 6;
#X obj 275 75 s \$0-reset;
#X obj 319 185 r \$0-reset;
#X obj 300 161 r \$0-metro;
#X obj 21 152 s \$0-metro;
#X text 295 423 1/32 note, f 6;
#X obj 593 347 r \$0-metro;
#X obj 593 371 outlet;
#X text 427 11 This patch is from https://www.youtube.com/watch?v=4UDJ1rZi1Yk&t=576s
;
#X connect 0 0 1 0;
#X connect 1 0 42 0;
#X connect 2 0 3 0;
#X connect 2 0 10 0;
#X connect 2 0 25 0;
#X connect 2 0 26 0;
#X connect 2 0 27 0;
#X connect 2 0 28 0;
#X connect 2 0 29 0;
#X connect 2 0 30 0;
#X connect 2 0 31 0;
#X connect 3 0 4 0;
#X connect 4 0 5 0;
#X connect 6 0 7 0;
#X connect 7 0 1 1;
#X connect 8 0 9 0;
#X connect 9 0 7 0;
#X connect 10 0 2 1;
#X connect 11 0 12 0;
#X connect 13 0 14 0;
#X connect 15 0 16 0;
#X connect 17 0 18 0;
#X connect 19 0 20 0;
#X connect 21 0 22 0;
#X connect 23 0 24 0;
#X connect 25 0 11 0;
#X connect 26 0 13 0;
#X connect 27 0 15 0;
#X connect 28 0 17 0;
#X connect 29 0 19 0;
#X connect 30 0 21 0;
#X connect 31 0 23 0;
#X connect 34 0 35 0;
#X connect 35 0 39 0;
#X connect 40 0 2 0;
#X connect 41 0 2 0;
#X connect 44 0 45 0;
