#N canvas 140 598 436 324 12;
#X obj 68 13 inlet;
#X obj 121 12 loadbang;
#X floatatom 121 60 5 0 0 0 - - - 0;
#X obj 68 112 pack f f;
#X obj 121 36 f \$1;
#X obj 68 171 line~;
#X obj 68 200 outlet~;
#X connect 0 0 3 0;
#X connect 1 0 4 0;
#X connect 2 0 3 1;
#X connect 3 0 5 0;
#X connect 4 0 2 0;
#X connect 5 0 6 0;
