#N canvas 606 614 436 339 12;
#X obj 68 13 inlet;
#X obj 68 200 outlet;
#X obj 68 171 line;
#X obj 121 12 loadbang;
#X floatatom 121 60 5 0 0 0 - - - 0;
#X obj 68 112 pack f f;
#X obj 121 36 f \$1;
#X connect 0 0 5 0;
#X connect 2 0 1 0;
#X connect 3 0 6 0;
#X connect 4 0 5 1;
#X connect 5 0 2 0;
#X connect 6 0 4 0;
