#N canvas 287 220 1125 627 12;
#X obj 89 56 adc~ 5;
#X obj 91 282 dac~ 1 2;
#X obj 90 236 *~;
#X floatatom 108 208 5 0 1 0 - - - 0;
#X obj 372 264 hsl 128 15 0 0.8 0 0 empty empty empty -2 -8 0 10 #fcfcfc
#000000 #000000 0 1;
#X text 107 165 volumen;
#X obj 354 60 hsl 128 15 0.1 2000 0 0 empty empty empty -2 -8 0 10
#fcfcfc #000000 #000000 0 1;
#X text 350 39 delay time;
#X obj 351 315 *~;
#X floatatom 369 290 5 0 1 0 - - - 0;
#X obj 352 361 dac~ 1 2;
#X obj 368 178 *~;
#X obj 368 202 send~ delFeedback;
#X text 506 262 delay volumen;
#X obj 388 127 hsl 128 15 0 1 0 0 empty empty empty -2 -8 0 10 #fcfcfc
#000000 #000000 0 1;
#X floatatom 385 153 5 0 1 0 - - - 0;
#X text 522 126 feedback amount;
#X obj 351 87 delread~ delBuffer 0;
#X obj 153 57 receive~ delFeedback;
#X obj 100 84 delwrite~ delBuffer 2000;
#X obj 730 172 rev1~;
#X obj 729 58 adc~ 5;
#X obj 752 239 hsl 128 15 0 0.8 0 0 empty empty empty -2 -8 0 10 #fcfcfc
#000000 #000000 0 1;
#X obj 731 290 *~;
#X floatatom 749 265 5 0 1 0 - - - 0;
#X obj 732 336 dac~ 1 2;
#X text 886 237 rev volumen;
#X floatatom 745 139 5 0 1 0 - - - 0;
#X connect 0 0 2 0;
#X connect 0 0 19 0;
#X connect 2 0 1 0;
#X connect 2 0 1 1;
#X connect 3 0 2 1;
#X connect 4 0 9 0;
#X connect 6 0 17 0;
#X connect 8 0 10 0;
#X connect 8 0 10 1;
#X connect 9 0 8 1;
#X connect 11 0 12 0;
#X connect 14 0 15 0;
#X connect 15 0 11 1;
#X connect 17 0 8 0;
#X connect 17 0 11 0;
#X connect 18 0 19 0;
#X connect 20 0 23 0;
#X connect 21 0 20 0;
#X connect 22 0 24 0;
#X connect 23 0 25 0;
#X connect 23 0 25 1;
#X connect 24 0 23 1;
#X connect 27 0 20 1;
