#N canvas 28 373 1125 627 12;
#X obj 21 589 dac~ 1 2;
#X obj 619 11 adc~ 1;
#X obj 619 35 s~ audioInputLeft;
#X obj 6 6 pepperInitializeDigitalGpio;
#X obj 759 11 adc~ 2;
#X obj 759 35 s~ audioInputRight;
#X obj 6 167 pepperButton1;
#X obj 20 517 catch~ audioOutputLeft;
#X obj 74 547 catch~ audioOutputRight;
#X obj 6 59 s valueA1;
#X obj 500 59 s valueA8;
#X obj 429 59 s valueA4;
#X obj 358 59 s valueA7;
#X obj 288 59 s valueA3;
#X obj 217 59 s valueA6;
#X obj 147 59 s valueA2;
#X obj 76 59 s valueA5;
#X obj 6 95 pepperReadCvInputs, f 71;
#X obj 6 119 s~ A1;
#X obj 76 119 s~ A5;
#X obj 147 119 s~ A2;
#X obj 217 119 s~ A6;
#X obj 288 119 s~ A3;
#X obj 358 119 s~ A7;
#X obj 429 119 s~ A4;
#X obj 500 119 s~ A8;
#X obj 64 251 s rtB1;
#X obj 94 231 s ftB1;
#X obj 35 271 s tB1;
#X obj 6 291 s B1;
#X obj 146 167 pepperButton2;
#X obj 146 291 s B2;
#X obj 175 271 s tB2;
#X obj 204 251 s rtB2;
#X obj 234 231 s ftB2;
#X obj 286 167 pepperButton3;
#X obj 286 291 s B3;
#X obj 315 271 s tB3;
#X obj 344 251 s rtB3;
#X obj 374 231 s ftB3;
#X obj 426 167 pepperButton4;
#X obj 514 231 s ftB4;
#X obj 484 251 s rtB4;
#X obj 455 271 s tB4;
#X obj 426 291 s B4;
#X obj 834 502 pepperLed1;
#X obj 853 482 pepperLed2;
#X obj 873 462 pepperLed3;
#X obj 893 442 pepperLed4;
#X obj 913 422 pepperLed5;
#X obj 933 402 pepperLed6;
#X obj 953 382 pepperLed7;
#X obj 973 362 pepperLed8;
#X obj 993 342 pepperLed9;
#X obj 1013 322 pepperLed10;
#X obj 834 112 r menuLed1;
#X obj 853 132 r menuLed2;
#X obj 873 152 r menuLed3;
#X obj 893 172 r menuLed4;
#X obj 913 192 r menuLed5;
#X obj 933 212 r menuLed6;
#X obj 953 232 r menuLed7;
#X obj 973 252 r menuLed8;
#X obj 993 272 r menuLed9;
#X obj 1013 292 r menuLed10;
#X obj 484 401 delayReverb;
#X obj 6 35 pepperReadAnalogInputs 10, f 71;
#X connect 1 0 2 0;
#X connect 4 0 5 0;
#X connect 6 0 29 0;
#X connect 6 1 28 0;
#X connect 6 2 26 0;
#X connect 6 3 27 0;
#X connect 7 0 0 0;
#X connect 8 0 0 1;
#X connect 17 0 18 0;
#X connect 17 1 19 0;
#X connect 17 2 20 0;
#X connect 17 3 21 0;
#X connect 17 4 22 0;
#X connect 17 5 23 0;
#X connect 17 6 24 0;
#X connect 17 7 25 0;
#X connect 30 0 31 0;
#X connect 30 1 32 0;
#X connect 30 2 33 0;
#X connect 30 3 34 0;
#X connect 35 0 36 0;
#X connect 35 1 37 0;
#X connect 35 2 38 0;
#X connect 35 3 39 0;
#X connect 40 0 44 0;
#X connect 40 1 43 0;
#X connect 40 2 42 0;
#X connect 40 3 41 0;
#X connect 55 0 45 0;
#X connect 56 0 46 0;
#X connect 57 0 47 0;
#X connect 58 0 48 0;
#X connect 59 0 49 0;
#X connect 60 0 50 0;
#X connect 61 0 51 0;
#X connect 62 0 52 0;
#X connect 63 0 53 0;
#X connect 64 0 54 0;
#X connect 66 0 9 0;
#X connect 66 1 16 0;
#X connect 66 2 15 0;
#X connect 66 3 14 0;
#X connect 66 4 13 0;
#X connect 66 5 12 0;
#X connect 66 6 11 0;
#X connect 66 7 10 0;
