#N canvas 657 118 1125 627 12;
#X obj 89 56 adc~ 5;
#X obj 90 191 dac~ 1 2;
#X obj 730 172 rev1~;
#X obj 729 58 adc~ 5;
#X obj 752 239 hsl 128 15 0 0.8 0 0 empty empty empty -2 -8 0 10 #fcfcfc
#000000 #000000 0 1;
#X obj 731 290 *~;
#X floatatom 749 265 5 0 1 0 - - - 0;
#X obj 732 336 dac~ 1 2;
#X text 886 237 rev volumen;
#X msg 746 133 1;
#X obj 746 102 loadbang;
#X floatatom 129 106 5 0 1 0 - - - 0;
#X obj 90 137 bgDelay 0.8 500 0.5 0.2;
#X floatatom 208 108 5 0 1 0 - - - 0;
#X obj 299 138 bgReverb 0.8;
#X floatatom 380 111 5 0 1 0 - - - 0;
#X connect 0 0 12 0;
#X connect 0 0 14 0;
#X connect 2 0 5 0;
#X connect 3 0 2 0;
#X connect 4 0 6 0;
#X connect 5 0 7 0;
#X connect 5 0 7 1;
#X connect 6 0 5 1;
#X connect 9 0 2 1;
#X connect 10 0 9 0;
#X connect 11 0 12 1;
#X connect 12 0 1 0;
#X connect 12 0 1 1;
#X connect 13 0 12 3;
#X connect 14 0 1 0;
#X connect 14 1 1 1;
#X connect 15 0 14 1;
