#N canvas 786 340 1125 627 12;
#X obj 34 513 *~ 0.2;
#X obj 207 513 *~ 0.2;
#X obj 9 15 r~ audioInputLeft;
#X obj 9 102 r~ audioInputLeft;
#X obj 9 38 bgDry 1;
#X obj 9 62 s~ dry;
#X obj 33 384 r~ dry;
#X obj 9 300 s~ delay;
#X obj 43 404 r~ delay;
#X obj 208 384 r~ dry;
#X obj 218 404 r~ delay;
#X obj 291 37 menuSelector 0, f 26;
#X obj 144 38 intTriggerCounter, f 19;
#X obj 144 15 r rtB1;
#X obj 209 16 r rtB2;
#X obj 73 487 r valueA8;
#X obj 246 487 r valueA8;
#X obj 34 547 throw~ audioOutputLeft;
#X obj 208 547 throw~ audioOutputRight;
#X obj 291 243 s menuLed1;
#X obj 310 223 s menuLed2;
#X obj 330 203 s menuLed3;
#X obj 350 183 s menuLed4;
#X obj 370 163 s menuLed5;
#X obj 390 143 s menuLed6;
#X obj 410 123 s menuLed7;
#X obj 430 103 s menuLed8;
#X obj 450 83 s menuLed9;
#X obj 470 63 s menuLed10;
#X obj 144 62 s menuValue;
#X obj 291 12 r menuValue;
#X obj 66 149 r~ A2;
#X obj 125 169 r~ A3;
#X obj 9 226 pepperSimpleDelay;
#X obj 571 283 r menuLed1;
#X obj 411 297 value a2;
#X obj 411 263 r valueA2;
#X obj 547 389 expr~ a2;
#X connect 0 0 17 0;
#X connect 1 0 18 0;
#X connect 2 0 4 0;
#X connect 3 0 33 0;
#X connect 4 0 5 0;
#X connect 8 0 0 0;
#X connect 10 0 1 0;
#X connect 11 0 19 0;
#X connect 11 1 20 0;
#X connect 11 2 21 0;
#X connect 11 3 22 0;
#X connect 11 4 23 0;
#X connect 11 5 24 0;
#X connect 11 6 25 0;
#X connect 11 7 26 0;
#X connect 11 8 27 0;
#X connect 11 9 28 0;
#X connect 12 0 29 0;
#X connect 13 0 12 0;
#X connect 14 0 12 1;
#X connect 15 0 0 1;
#X connect 16 0 1 1;
#X connect 30 0 11 0;
#X connect 31 0 33 1;
#X connect 32 0 33 2;
#X connect 33 0 7 0;
#X connect 34 0 37 0;
#X connect 36 0 35 0;
