#N canvas 1163 554 450 300 12;
#X obj 50 118 spigot;
#X obj 139 57 bng 15 250 50 0 empty empty empty 17 7 0 10 #fcfcfc #000000
#000000;
#X msg 140 78 1;
#X msg 215 78 0;
#X obj 215 58 bng 15 250 50 0 empty empty empty 17 7 0 10 #fcfcfc #000000
#000000;
#X obj 50 219 outlet;
#X obj 139 30 inlet set;
#X obj 50 30 inlet value;
#X obj 215 30 inlet reset;
#X connect 0 0 5 0;
#X connect 1 0 2 0;
#X connect 2 0 0 1;
#X connect 3 0 0 1;
#X connect 4 0 3 0;
#X connect 6 0 1 0;
#X connect 7 0 0 0;
#X connect 8 0 4 0;
