#N canvas 484 170 1280 699 12;
#X obj 17 46 bng 15 250 50 0 empty empty empty 17 7 0 10 #fcfcfc #000000
#000000;
#X obj 17 14 inlet trigger;
#X msg 17 170 0.2 0 \, 0 1 0;
#X msg 114 169 250 0 \, 50 10 0;
#X msg 227 169 1 4 \, 0.9 65 4 \, 0 360 69;
#X obj 17 206 vline~;
#X obj 114 206 vline~;
#X obj 227 205 vline~;
#X obj 406 244 vline~;
#X obj 18 368 outlet~;
#X obj 114 239 osc~;
#X obj 227 241 pow~ 1.5;
#X obj 316 226 noise~;
#X obj 389 317 *~;
#X obj 184 298 *~;
#X obj 362 16 inlet noise;
#X obj 316 271 lop~ 10;
#X obj 365 115 hsl 127 15 10 3000 0 0 empty empty Noise\\\ LPF -2 -8
0 10 #fcfcfc #000000 #000000 0 1;
#X msg 371 69 20;
#X obj 531 135 f;
#X floatatom 549 111 5 0 0 0 - - - 0;
#X msg 406 169 0.05 4 \, 0 100 \$1;
#X obj 552 87 hsl 127 15 4 1000 0 0 empty empty Noise\\\ Tail -2 -8
0 10 #fcfcfc #000000 #000000 0 1;
#X msg 665 47 4;
#X obj 549 18 inlet noiseTail;
#X obj 665 19 loadbang;
#X obj 371 41 loadbang;
#X connect 0 0 19 0;
#X connect 0 0 2 0;
#X connect 0 0 3 0;
#X connect 0 0 4 0;
#X connect 1 0 0 0;
#X connect 2 0 5 0;
#X connect 3 0 6 0;
#X connect 4 0 7 0;
#X connect 5 0 9 0;
#X connect 6 0 10 0;
#X connect 7 0 11 0;
#X connect 8 0 13 1;
#X connect 10 0 14 0;
#X connect 11 0 14 1;
#X connect 12 0 16 0;
#X connect 13 0 9 0;
#X connect 14 0 9 0;
#X connect 15 0 17 0;
#X connect 16 0 13 0;
#X connect 17 0 16 1;
#X connect 18 0 17 0;
#X connect 19 0 21 0;
#X connect 20 0 19 1;
#X connect 21 0 8 0;
#X connect 22 0 20 0;
#X connect 23 0 22 0;
#X connect 24 0 22 0;
#X connect 25 0 23 0;
#X connect 26 0 18 0;
