#N canvas 1077 416 647 626 12;
#X obj 10 267 kick909, f 66;
#X obj 302 14 inlet;
#X text 13 10 trigger;
#X obj 302 38 s \$0-trigger;
#X obj 10 235 r \$0-trigger;
#X obj 160 10 vuMeter;
#X obj 11 349 volumen;
#X text 14 202 out;
#X text 69 203 kick 909;
#X obj 20 186 hsl 128 15 0 1 0 1 \$0-vol \$1-vol volume -2 -5 0 10
#ff8300 #000000 #000000 8600 0;
#X obj 57 299 r \$0-vol;
#X floatatom 57 323 5 0 0 0 - - - 0;
#X obj 19 588 outlet~;
#X obj 11 373 s~ \$0-audio;
#X obj 19 564 r~ \$0-audio;
#X obj 218 13 r~ \$0-audio;
#X obj 101 236 r \$0-pow;
#X obj 19 158 hsl 128 15 0.5 3 1 1 \$0-pow \$1-pow pow -2 -5 0 10 #c6feff
#000000 #000000 9600 0;
#X obj 19 73 hsl 128 15 0 4 0 0 \$0-res \$1-res resonance -2 -5 0 10
#c6ffc7 #000000 #000000 0 0;
#X obj 193 234 r \$0-bobFreq;
#X obj 285 234 r \$0-res;
#X obj 19 44 hsl 128 15 10 20000 1 1 \$0-bobFreq \$1-bobFreq filter\\\ frequency
-2 -5 0 10 #c6ffc7 #000000 #000000 12700 0;
#X obj 188 299 r \$0-bobFreq;
#X obj 280 299 r \$0-res;
#X floatatom 188 323 11 0 0 0 - - - 0;
#X floatatom 280 323 5 0 0 0 - - - 0;
#X obj 122 299 r \$0-pow;
#X floatatom 122 323 8 0 0 0 - - - 0;
#X obj 78 444 loadbang;
#X obj 13 492 s \$1-vol;
#X msg 13 468 0.6;
#X obj 13 444 loadbang;
#X msg 78 468 1.5;
#X obj 78 492 s \$1-pow;
#X obj 236 444 loadbang;
#X obj 143 444 loadbang;
#X msg 143 468 20000;
#X obj 143 492 s \$1-bobFreq;
#X obj 236 492 s \$1-bobRes;
#X msg 236 468 0;
#X text 27 415 init values;
#X obj 107 12 bng 15 250 50 0 empty empty empty 17 7 0 10 #ff8300 #000000
#000000;
#X obj 19 102 hsl 128 15 10 3000 0 0 \$0-noiseFilter \$1-noiseFilter
noise\\\ filter -2 -5 0 10 #c7c6ff #000000 #000000 0 0;
#X obj 20 131 hsl 128 15 4 1000 0 0 \$0-noiseTail \$1-noiseTail noise\\\ tail
-2 -5 0 10 #c7c6ff #000000 #000000 0 0;
#X obj 377 234 r \$0-noiseFilter;
#X connect 0 0 6 0;
#X connect 1 0 3 0;
#X connect 4 0 0 0;
#X connect 6 0 13 0;
#X connect 10 0 11 0;
#X connect 11 0 6 1;
#X connect 14 0 12 0;
#X connect 15 0 5 0;
#X connect 16 0 0 1;
#X connect 19 0 0 2;
#X connect 20 0 0 3;
#X connect 22 0 24 0;
#X connect 23 0 25 0;
#X connect 26 0 27 0;
#X connect 28 0 32 0;
#X connect 30 0 29 0;
#X connect 31 0 30 0;
#X connect 32 0 33 0;
#X connect 34 0 39 0;
#X connect 35 0 36 0;
#X connect 36 0 37 0;
#X connect 39 0 38 0;
#X connect 41 0 3 0;
#X connect 44 0 0 4;
#X coords 0 -1 1 1 200 210 2 10 10;
