#N canvas 447 278 1589 699 12;
#X obj 17 14 inlet trigger;
#X msg 17 170 0.2 0 \, 0 1 0;
#X msg 114 169 250 0 \, 50 10 0;
#X msg 227 169 1 4 \, 0.9 65 4 \, 0 360 69;
#X obj 17 206 vline~;
#X obj 114 206 vline~;
#X obj 227 205 vline~;
#X obj 818 224 vline~;
#X obj 114 270 osc~;
#X obj 603 226 noise~;
#X obj 602 383 *~;
#X obj 115 364 *~;
#X obj 603 271 lop~ 10;
#X msg 570 41 20;
#X obj 818 155 f;
#X msg 818 189 0.05 4 \, 0 100 \$1;
#X obj 570 13 loadbang;
#X obj 227 272 pow~ 1.5;
#X text 15 588 Patch from pd_777;
#X obj 198 14 inlet;
#X obj 198 79 clip 0 3;
#X obj 198 103 s \$0-pow;
#X obj 280 241 r \$0-pow;
#X obj 242 14 loadbang;
#X msg 242 38 1.5;
#X obj 17 142 r \$0-trig;
#X obj 114 143 r \$0-trig;
#X obj 227 144 r \$0-trig;
#X obj 818 107 r \$0-trig;
#X obj 17 38 s \$0-trig;
#X obj 18 434 s~ \$0-audio;
#X obj 16 557 outlet~;
#X obj 177 461 r~ \$0-audio;
#X obj 314 14 inlet;
#X obj 16 529 r~ \$0-outlet;
#X obj 177 517 s~ \$0-outlet;
#X obj 266 461 r \$0-bobFreq;
#X obj 314 104 s \$0-bobFreq;
#X obj 177 493 bob~, f 26;
#X obj 420 13 inlet;
#X obj 420 103 s \$0-bobRes;
#X obj 356 461 r \$0-bobRes;
#X obj 314 80 clip 10 20000;
#X text 260 439 Filter;
#X obj 524 79 clip 10 3000;
#X obj 649 247 r \$0-noiseFilter;
#X obj 524 103 s \$0-noiseFilter;
#X obj 524 13 inlet;
#X obj 695 13 loadbang;
#X obj 649 13 inlet;
#X obj 649 103 s \$0-noiseTail;
#X msg 695 41 4;
#X obj 649 79 clip 4 1000;
#X obj 836 130 r \$0-noiseTail;
#X obj 420 79 clip 0 4;
#X connect 0 0 29 0;
#X connect 1 0 4 0;
#X connect 2 0 5 0;
#X connect 3 0 6 0;
#X connect 4 0 30 0;
#X connect 5 0 8 0;
#X connect 6 0 17 0;
#X connect 7 0 10 1;
#X connect 8 0 11 0;
#X connect 9 0 12 0;
#X connect 10 0 30 0;
#X connect 11 0 30 0;
#X connect 12 0 10 0;
#X connect 13 0 44 0;
#X connect 14 0 15 0;
#X connect 15 0 7 0;
#X connect 16 0 13 0;
#X connect 17 0 11 1;
#X connect 19 0 20 0;
#X connect 20 0 21 0;
#X connect 22 0 17 1;
#X connect 23 0 24 0;
#X connect 24 0 20 0;
#X connect 25 0 1 0;
#X connect 26 0 2 0;
#X connect 27 0 3 0;
#X connect 28 0 14 0;
#X connect 32 0 38 0;
#X connect 33 0 42 0;
#X connect 34 0 31 0;
#X connect 36 0 38 1;
#X connect 38 0 35 0;
#X connect 39 0 54 0;
#X connect 41 0 38 2;
#X connect 42 0 37 0;
#X connect 44 0 46 0;
#X connect 45 0 12 1;
#X connect 47 0 44 0;
#X connect 48 0 51 0;
#X connect 49 0 52 0;
#X connect 51 0 52 0;
#X connect 52 0 50 0;
#X connect 53 0 14 1;
#X connect 54 0 40 0;
